<?xml version="1.0" encoding="UTF-8"?>
<svg version="1.1" xmlns="http://www.w3.org/2000/svg" width="545" height="477">
<path d="M0 0 C2.70629883 1.23999023 2.70629883 1.23999023 5.45703125 2.80859375 C6.47772705 3.38528809 7.49842285 3.96198242 8.55004883 4.55615234 C9.62665771 5.17699707 10.7032666 5.7978418 11.8125 6.4375 C12.93615967 7.0763916 14.05981934 7.7152832 15.2175293 8.37353516 C21.93702843 12.20485809 28.62372554 16.09136829 35.27490234 20.04003906 C41.95246403 23.99816731 48.69403414 27.84321208 55.4375 31.6875 C64.63924521 36.93394517 73.82930146 42.19936291 83 47.5 C91.98539593 52.69242807 100.98645004 57.85666785 110 63 C122.35664604 70.05167387 134.68723438 77.14773157 147.00390625 84.26904297 C149.93860474 85.96452963 152.87527893 87.65654419 155.8125 89.34765625 C157.56252287 90.35673117 159.31252423 91.3658434 161.0625 92.375 C161.86051025 92.83366455 162.65852051 93.2923291 163.48071289 93.76489258 C168.88656445 96.88656445 168.88656445 96.88656445 170 98 C170.09511403 100.64741882 170.12554328 103.26855457 170.11352539 105.91625977 C170.11370619 107.18024424 170.11370619 107.18024424 170.11389065 108.46976376 C170.11314142 111.21033767 170.10551277 113.95084443 170.09765625 116.69140625 C170.09618686 118.37821418 170.09516613 120.06502257 170.09460449 121.75183105 C170.08935126 128.02206097 170.07539018 134.29228114 170.0625 140.5625 C170.041875 154.566875 170.02125 168.57125 170 183 C214.88 183 259.76 183 306 183 C299.17448738 196.65102524 299.17448738 196.65102524 295.5625 202.625 C294.69285154 204.08394526 293.82444636 205.54363205 292.95703125 207.00390625 C292.4873291 207.7942627 292.01762695 208.58461914 291.53369141 209.39892578 C288.56672182 214.43077773 285.66295173 219.49925483 282.75 224.5625 C277.85878476 233.05669904 272.94612605 241.5376573 268 250 C261.25280507 261.54718726 254.56660602 273.12902168 247.89111328 284.71777344 C244.13971976 291.22871257 240.38309006 297.73663194 236.62744141 304.24511719 C233.48817754 309.68585336 230.35018503 315.12731477 227.21484375 320.5703125 C220.59777108 332.0544882 213.95366023 343.52196894 207.26708984 354.96582031 C201.10080946 365.52620282 194.9950405 376.12126766 188.89111328 386.71777344 C185.14511648 393.21934599 181.3947381 399.71839431 177.64282227 406.21655273 C174.75036587 411.22723556 171.86073806 416.2394688 168.98303223 421.25863647 C167.97451686 423.01728749 166.9649523 424.77533209 165.95507812 426.53320312 C164.69649482 428.72472231 163.43983013 430.91734504 162.18554688 433.11132812 C158.30468668 439.86272402 154.23641368 446.46591135 150 453 C147.18215963 450.4916488 145.54276277 447.70077062 143.69921875 444.42578125 C143.05911865 443.29575684 142.41901855 442.16573242 141.75952148 441.00146484 C141.42217987 440.40082214 141.08483826 439.80017944 140.73727417 439.18133545 C138.94406526 435.98901802 137.13474566 432.80583354 135.328125 429.62109375 C134.7789164 428.65130585 134.7789164 428.65130585 134.21861267 427.66192627 C130.84142794 421.70368282 127.39950365 415.78434215 123.9375 409.875 C119.73380914 402.69182588 115.54828558 395.49887365 111.39379883 388.28710938 C110.14126023 386.11304986 108.8872152 383.93985748 107.6315918 381.76757812 C104.74715634 376.77689718 101.87133066 371.78211579 99.03344727 366.76483154 C97.4465891 363.9638757 95.84664618 361.17038473 94.25 358.375 C93.37311523 356.80878906 93.37311523 356.80878906 92.47851562 355.2109375 C91.66157227 353.7878125 91.66157227 353.7878125 90.828125 352.3359375 C90.3527832 351.49595215 89.87744141 350.6559668 89.38769531 349.79052734 C88.70078613 348.90421631 88.70078613 348.90421631 88 348 C84.41033478 348 83.07894857 348.91019456 80.00390625 350.71875 C78.98490234 351.31300781 77.96589844 351.90726562 76.91601562 352.51953125 C75.25602539 353.49986328 75.25602539 353.49986328 73.5625 354.5 C71.79829992 355.53191407 70.03273377 356.56146618 68.2671814 357.59106445 C67.03904842 358.30757628 65.81137445 359.02487539 64.58413696 359.74291992 C58.66017203 363.20769984 52.70304951 366.61298747 46.73956299 370.00915527 C34.59652418 376.92575792 22.4866256 383.89887869 10.38671875 390.890625 C9.44876465 391.42751953 8.51081055 391.96441406 7.54443359 392.51757812 C5.9781137 393.43013756 4.42517874 394.36675385 2.89697266 395.34179688 C-1.41834906 398.0584643 -1.41834906 398.0584643 -4.37304688 397.76147461 C-7.23667055 396.93139633 -9.51975338 395.80191359 -12.11328125 394.33203125 C-13.10110596 393.77596191 -14.08893066 393.21989258 -15.10668945 392.64697266 C-16.16460693 392.04159668 -17.22252441 391.4362207 -18.3125 390.8125 C-19.42262451 390.1839209 -20.53274902 389.5553418 -21.67651367 388.90771484 C-30.08079477 384.13467817 -38.43536139 379.27662655 -46.77368164 374.3894043 C-54.40446088 369.91857807 -62.0682246 365.50743647 -69.75 361.125 C-70.33365326 360.79196869 -70.91730652 360.45893738 -71.51864624 360.11581421 C-74.48759504 358.42200953 -77.45702023 356.72904238 -80.42675781 355.03662109 C-86.32801689 351.67347949 -92.2269235 348.30621933 -98.125 344.9375 C-98.70536011 344.60606995 -99.28572021 344.27463989 -99.88366699 343.9331665 C-109.33173882 338.53656712 -118.76000105 333.10615229 -128.18066406 327.66186523 C-137.53990521 322.25653955 -146.92231735 316.89235267 -156.3125 311.54101562 C-157.40304688 310.91904297 -158.49359375 310.29707031 -159.6171875 309.65625 C-160.56190918 309.11806641 -161.50663086 308.57988281 -162.47998047 308.02539062 C-163.25069224 307.54906519 -163.25069224 307.54906519 -164.03697395 307.06311703 C-166.10399651 305.88183927 -166.10399651 305.88183927 -168.9074688 304.93975925 C-172.62320398 303.3421965 -175.12368057 301.86516508 -178 299 C-179.91751732 292.71271643 -179.76696684 286.50541693 -179.74316406 279.97631836 C-179.77909163 278.01763714 -179.81992881 276.05904075 -179.86529541 274.10055542 C-179.97118898 268.78776069 -179.99942331 263.4772848 -180.00708485 258.16353679 C-180.01562566 254.83958552 -180.04126349 251.51622061 -180.07305145 248.19241524 C-180.18405038 236.58273135 -180.23307894 224.97469885 -180.22363281 213.36450195 C-180.2164312 202.56380393 -180.34285566 191.77031437 -180.53255677 180.97144026 C-180.68986558 171.68334222 -180.75382383 162.39758932 -180.7461679 153.10817057 C-180.74311719 147.56641711 -180.77672151 142.03106343 -180.9043045 136.49064445 C-181.62322859 102.96976743 -181.62322859 102.96976743 -175.69657898 94.84053421 C-170.16889099 89.93267586 -164.11029235 87.33462448 -157.13204193 85.10974312 C-151.88278893 83.24983111 -147.26205665 80.3482121 -142.5 77.5 C-140.59388074 76.42093581 -138.68533 75.34614552 -136.7734375 74.27734375 C-130.85519398 70.93238065 -124.98832054 67.50256968 -119.125 64.0625 C-110.82397515 59.19350577 -102.46987028 54.43293263 -94.0625 49.75 C-86.56116117 45.57167028 -79.10303037 41.34164757 -71.72070312 36.95678711 C-65.04387559 33.00094117 -58.30436374 29.15598921 -51.5625 25.3125 C-41.88294662 19.79301175 -32.21405064 14.2558336 -22.5625 8.6875 C-20.92873413 7.74547729 -20.92873413 7.74547729 -19.26196289 6.78442383 C-13.79689179 3.68844002 -13.79689179 3.68844002 -8.55053711 0.24926758 C-5.19141308 -1.39605047 -3.56190268 -1.01502023 0 0 Z M48 214 C49.65316748 218.95950244 51.51456707 222.86322334 54.1875 227.25 C55.09498405 228.76618915 56.00114806 230.28316888 56.90625 231.80078125 C57.40125 232.62916504 57.89625 233.45754883 58.40625 234.31103516 C61.37902329 239.32667931 64.27935172 244.38420635 67.1875 249.4375 C67.82381348 250.54174316 68.46012695 251.64598633 69.11572266 252.78369141 C71.07779018 256.18875838 73.03897026 259.59433526 75 263 C82.30469788 275.68347618 89.61598343 288.36249179 97 301 C105.02267511 314.73055188 112.95858259 328.51077966 120.89550781 342.29101562 C125.25795387 349.86398799 129.62640816 357.43345951 134 365 C134.65548828 366.1353418 135.31097656 367.27068359 135.98632812 368.44042969 C137.92496386 371.79561499 139.86807392 375.14816778 141.8125 378.5 C142.40554932 379.52754395 142.99859863 380.55508789 143.60961914 381.61376953 C144.15739014 382.55591309 144.70516113 383.49805664 145.26953125 384.46875 C145.75010986 385.29826172 146.23068848 386.12777344 146.72583008 386.98242188 C147.9704932 389.1173545 147.9704932 389.1173545 150 391 C150.56376343 390.02281006 150.56376343 390.02281006 151.13891602 389.02587891 C159.97375488 373.7121582 159.97375488 373.7121582 168.80859375 358.3984375 C169.41896484 357.34043945 170.02933594 356.28244141 170.65820312 355.19238281 C171.89510728 353.04845933 173.13208754 350.90457974 174.36914062 348.76074219 C177.50958117 343.31807441 180.64868634 337.87464455 183.78515625 332.4296875 C190.40222892 320.9455118 197.04633977 309.47803106 203.73291016 298.03417969 C207.98982753 290.74377558 212.22062183 283.43863099 216.4375 276.125 C217.05866699 275.04766602 217.67983398 273.97033203 218.31982422 272.86035156 C221.49056971 267.35892355 224.65829211 261.85576481 227.82421875 256.3515625 C229.09090621 254.15090372 230.35783124 251.95038167 231.625 249.75 C232.54442383 248.15321411 232.54442383 248.15321411 233.48242188 246.52416992 C238.30157919 238.17177306 243.19424435 229.8643061 248.14111328 221.58691406 C248.65013184 220.73194336 249.15915039 219.87697266 249.68359375 218.99609375 C250.13275146 218.24513428 250.58190918 217.4941748 251.04467773 216.72045898 C252.08090889 215.18227245 252.08090889 215.18227245 252 214 C184.68 214 117.36 214 48 214 Z " fill="#7422DC" transform="translate(206,13)"/>
</svg>
