<svg style="background-color:#05080f" xmlns="http://www.w3.org/2000/svg" width="454" height="144" viewBox="0 0 454 144">
  <g id="Group_5" data-name="Group 5" transform="translate(-34 -124)">
    <text id="B" transform="translate(34 129)" font-size="5" font-family="Novatica-Bold, Novatica" font-weight="700"><tspan fill="white" x="0" y="0">B</tspan></text>
    <g id="Rectangle_45" data-name="Rectangle 45" transform="translate(36 141)" fill="white" stroke="white" stroke-width="1">
      <rect width="17" height="5" rx="2.5" stroke="white"/>
      <rect x="0.5" y="0.5" width="16" height="4" rx="2" fill="#05080f"/>
    </g>
    <g id="Rectangle_46" data-name="Rectangle 46" transform="translate(36 173)" fill="#fff" stroke="white" stroke-width="1">
      <rect width="17" height="5" rx="2.5" stroke="white"/>
      <rect x="0.5" y="0.5" width="16" height="4" rx="2" fill="#05080f"/>
    </g>
    <g id="Rectangle_47" data-name="Rectangle 47" transform="translate(52 143)" fill="#05080f" stroke="white" stroke-width="1">
      <rect width="43" height="1" stroke="white"/>
      <rect x="0.5" y="0.5" width="42" fill="#05080f"/>
    </g>
    <g id="Rectangle_48" data-name="Rectangle 48" transform="translate(52 175)" fill="#05080f" stroke="white" stroke-width="1">
      <rect width="43" height="1" stroke="white"/>
      <rect x="0.5" y="0.5" width="42" fill="#05080f"/>
    </g>
    <rect id="Rectangle_49" data-name="Rectangle 49" width="13" height="3" transform="translate(61 142)" fill="##05080f"/>
    <g id="Ellipse_2" data-name="Ellipse 2" transform="translate(60 142)" fill="#05080f" stroke="white" stroke-width="1">
      <circle cx="1.5" cy="1.5" r="1.5" stroke="#05080f"/>
      <circle cx="1.5" cy="1.5" r="1" fill="#05080f"/>
    </g>
    <g id="Ellipse_3" data-name="Ellipse 3" transform="translate(72 142)" fill="#fff" stroke="white" stroke-width="1">
      <circle cx="1.5" cy="1.5" r="1.5" stroke="white"/>
      <circle cx="1.5" cy="1.5" r="1" fill="#05080f"/>
    </g>
    <line id="Line_7" data-name="Line 7" y1="4.5" x2="8" transform="translate(62.5 138.5)" fill="#05080f" stroke="white" stroke-width="1"/>
    <line id="Line_9" data-name="Line 9" y1="32.5" transform="translate(81.5 143.5)" fill="#05080f" stroke="white" stroke-width="1"/>
    <g id="Ellipse_4" data-name="Ellipse 4" transform="translate(75.5 153.5)" fill="#05080f" stroke="white" stroke-width="1">
      <circle cx="6" cy="6" r="6" stroke="white"/>
      <circle cx="6" cy="6" r="5.5" fill="#05080f"/>
    </g>
    <line id="Line_10" data-name="Line 10" x2="6" y2="9" transform="translate(78.5 154.5)" fill="#05080f" stroke="white" stroke-width="1"/>
    <line id="Line_11" data-name="Line 11" y1="8.5" x2="7" transform="translate(77.5 155)" fill="#05080f" stroke="white" stroke-width="1"/>
    <text id="_230_VAC" data-name="230 VAC" transform="translate(35 161.5)" font-size="6" font-family="Arial-BoldMT, Arial" font-weight="700"><tspan fill="white" x="0" y="0">230 VAC</tspan></text>
    <text id="S1" transform="translate(60 136)" font-size="6" font-family="Arial-BoldMT, Arial" font-weight="700"><tspan fill="white"  x="0" y="0">S1</tspan></text>
    <text id="L1" transform="translate(68 169)" font-size="6" font-family="Arial-BoldMT, Arial" font-weight="700"><tspan fill="white" x="0" y="0">L1</tspan></text>
    <g id="Ellipse_5" data-name="Ellipse 5" transform="translate(90 143)" fill="#fff" stroke="white" stroke-width="1">
      <ellipse cx="4.5" cy="3.5" rx="4.5" ry="3.5" stroke="white"/>
      <ellipse cx="4.5" cy="3.5" rx="4" ry="3" fill="#05080f"/>
    </g>
    <g id="Ellipse_6" data-name="Ellipse 6" transform="translate(90 149)" fill="#fff" stroke="white" stroke-width="1">
      <ellipse cx="4.5" cy="3.5" rx="4.5" ry="3.5" stroke="white"/>
      <ellipse cx="4.5" cy="3.5" rx="4" ry="3" fill="#05080f"/>
    </g>
    <g id="Ellipse_7" data-name="Ellipse 7" transform="translate(90 155)" fill="#fff" stroke="white" stroke-width="1">
      <ellipse cx="4.5" cy="4" rx="4.5" ry="4" stroke="white"/>
      <ellipse cx="4.5" cy="4" rx="4" ry="3.5" fill="#05080f"/>
    </g>
    <g id="Ellipse_8" data-name="Ellipse 8" transform="translate(90 162)" fill="#fff" stroke="white" stroke-width="1">
      <ellipse cx="4.5" cy="4" rx="4.5" ry="4" stroke="white"/>
      <ellipse cx="4.5" cy="4" rx="4" ry="3.5" fill="#05080f"/>
    </g>
    <g id="Ellipse_9" data-name="Ellipse 9" transform="translate(90 169)" fill="#fff" stroke="white" stroke-width="1">
      <ellipse cx="4.5" cy="3.5" rx="4.5" ry="3.5" stroke="white"/>
      <ellipse cx="4.5" cy="3.5" rx="4" ry="3" fill="#05080f"/>
    </g>
    <rect id="Rectangle_52" data-name="Rectangle 52" width="6" height="31" transform="translate(89 144)" fill="#fff"/>
    <g id="Ellipse_10" data-name="Ellipse 10" transform="translate(105 143)" fill="#fff" stroke="white" stroke-width="1">
      <ellipse cx="4.5" cy="3.5" rx="4.5" ry="3.5" stroke="white"/>
      <ellipse cx="4.5" cy="3.5" rx="4" ry="3" fill="#05080f"/>
    </g>
    <g id="Ellipse_11" data-name="Ellipse 11" transform="translate(90 143)" fill="#fff" stroke="white" stroke-width="1">
      <ellipse cx="4.5" cy="3.5" rx="4.5" ry="3.5" stroke="white"/>
      <ellipse cx="4.5" cy="3.5" rx="4" ry="3" fill="#05080f"/>
    </g>
    <g id="Rectangle_53" data-name="Rectangle 53" transform="translate(109 143)" fill="#05080f" stroke="white" stroke-width="1">
      <rect width="52" height="1" stroke="white"/>
      <rect x="0.5" y="0.5" width="51" fill="#05080f"/>
    </g>
    <rect id="Rectangle_54" data-name="Rectangle 54" width="6" height="30" transform="translate(89 144.5)" fill="#05080f"/>
    <g id="Ellipse_12" data-name="Ellipse 12" transform="translate(105 149)" fill="#fff" stroke="white" stroke-width="1">
      <ellipse cx="4.5" cy="3.5" rx="4.5" ry="3.5" stroke="white"/>
      <ellipse cx="4.5" cy="3.5" rx="4" ry="3" fill="#05080f"/>
    </g>
    <g id="Ellipse_13" data-name="Ellipse 13" transform="translate(105 162)" fill="#fff" stroke="white" stroke-width="1">
      <ellipse cx="4.5" cy="3.5" rx="4.5" ry="3.5" stroke="white"/>
      <ellipse cx="4.5" cy="3.5" rx="4" ry="3" fill="#05080f"/>
    </g>
    <g id="Ellipse_14" data-name="Ellipse 14" transform="matrix(1, 0.017, -0.017, 1, 105.062, 154.922)" fill="#fff" stroke="white" stroke-width="1">
      <ellipse cx="4.5" cy="3.75" rx="4.5" ry="3.75" stroke="white"/>
      <ellipse cx="4.5" cy="3.75" rx="4" ry="3.25" fill="#05080f"/>
    </g>
    <g id="Ellipse_15" data-name="Ellipse 15" transform="translate(105 169)" fill="#fff" stroke="white" stroke-width="1">
      <ellipse cx="4.5" cy="3.5" rx="4.5" ry="3.5" stroke="white"/>
      <ellipse cx="4.5" cy="3.5" rx="4" ry="3" fill="#05080f"/>
    </g>
    <g id="Rectangle_56" data-name="Rectangle 56" transform="translate(109 175)" fill="#05080f" stroke="white" stroke-width="1">
      <rect width="23" height="1" stroke="white"/>
      <rect x="0.5" y="0.5" width="22" fill="#05080f"/>
    </g>
    <rect id="Rectangle_55" data-name="Rectangle 55" width="6" height="30" transform="translate(110 144.5)" fill="#05080f"/>
    <text id="T1" transform="translate(102 141)" font-size="6" font-family="Arial-BoldMT, Arial" font-weight="700"><tspan fill="white" x="0" y="0">T1</tspan></text>
    <g id="Rectangle_57" data-name="Rectangle 57" transform="translate(131 176)" fill="#fff" stroke="white" stroke-width="1">
      <rect width="1" height="44" stroke="white"/>
      <rect x="0.5" y="0.5" height="43" fill="#05080f"/>
    </g>
    <g id="Rectangle_58" data-name="Rectangle 58" transform="translate(123 189)" fill="#fff" stroke="white" stroke-width="1">
      <rect width="1" height="77" stroke="white"/>
      <rect x="0.5" y="0.5" height="76" fill="#05080f"/>
    </g>
    <g id="Rectangle_59" data-name="Rectangle 59" transform="translate(124 265)" Fill="#fff" stroke="white" stroke-width="1">
      <rect width="353" height="1" stroke="white"/>
      <rect x="0.5" y="0.5" width="352" fill="#05080f"/>
    </g>
    <g id="Rectangle_60" data-name="Rectangle 60" transform="translate(124 189)" Fill="#05080f" stroke="white" stroke-width="1">
      <rect width="5" height="1" stroke="white"/>
      <rect x="0.5" y="0.5" width="4" fill="#05080f"/>
    </g>
    <g id="Rectangle_61" data-name="Rectangle 61" transform="translate(123 189)" Fill="#05080f" stroke="white" stroke-width="1">
      <rect width="74" height="1" stroke="white"/>
      <rect x="0.5" y="0.5" width="73" fill="#05080f"/>
    </g>
    <g id="Ellipse_16" data-name="Ellipse 16" transform="translate(128 187)" Fill="#05080f" stroke="white" stroke-width="1">
      <ellipse cx="3.5" cy="3" rx="3.5" ry="3" stroke="white"/>
      <ellipse cx="3.5" cy="3" rx="3" ry="2.5" fill="#05080f"/>
    </g>
    <rect id="Rectangle_62" data-name="Rectangle 62" width="9" height="3" transform="translate(127 190)" Fill="#05080f"/>
    <g id="Rectangle_63" data-name="Rectangle 63" transform="translate(131 190)" Fill="#05080f" stroke="white" stroke-width="1">
      <rect width="1" height="3" stroke="white"/>
      <rect x="0.5" y="0.5" height="2" fill="#05080f"/>
    </g>
    <rect id="Rectangle_64" data-name="Rectangle 64" width="4" height="1" transform="translate(130 186)" Fill="#05080f"/>
    <g id="Rectangle_65" data-name="Rectangle 65" transform="translate(161 168.287) rotate(45)" Fill="#05080f" stroke="white" stroke-width="1">
      <rect width="30" height="30" stroke="white"/>
      <rect x="0.5" y="0.5" width="29" height="29" fill="#05080f"/>
    </g>
    <g id="Group_1" data-name="Group 1" transform="translate(-35 14)">
      <g id="Polygon_1" data-name="Polygon 1" transform="translate(186.657 158.615) rotate(45)">
        <path d="M 7.190984725952148 7.5 L 0.8090147376060486 7.5 L 3.999999761581421 1.118029952049255 L 7.190984725952148 7.5 Z" stroke="white"/>
        <path d="M 3.999999761581421 2.236070156097412 L 1.618034839630127 7 L 6.381964683532715 7 L 3.999999761581421 2.236070156097412 M 3.999999761581421 0 L 8 8 L -4.76837158203125e-07 8 L 3.999999761581421 0 Z" stroke="white" fill="#000"/>
      </g>
      <g id="Rectangle_66" data-name="Rectangle 66" transform="translate(186.525 158.318) rotate(45)" Fill="#05080f" stroke="white" stroke-width="1">
        <rect width="8" height="1" stroke="white"/>
        <rect x="0.5" y="0.5" width="7" fill="#05080f"/>
      </g>
    </g>
    <g id="Group_2" data-name="Group 2" transform="translate(-14 34.385)">
      <g id="Polygon_1-2" data-name="Polygon 1" transform="translate(186.657 158.615) rotate(45)">
        <path d="M 7.190984725952148 7.5 L 0.8090147376060486 7.5 L 3.999999761581421 1.118029952049255 L 7.190984725952148 7.5 Z" stroke="white"/>
        <path d="M 3.999999761581421 2.236070156097412 L 1.618034839630127 7 L 6.381964683532715 7 L 3.999999761581421 2.236070156097412 M 3.999999761581421 0 L 8 8 L -4.76837158203125e-07 8 L 3.999999761581421 0 Z" stroke="white" fill="#000"/>
      </g>
      <g id="Rectangle_66-2" data-name="Rectangle 66" transform="translate(186.525 158.318) rotate(45)" Fill="#05080f" stroke="white" stroke-width="1">
        <rect width="8" height="1" stroke="white"/>
        <rect x="0.5" y="0.5" width="7" fill="#05080f"/>
      </g>
    </g>
    <g id="Group_3" data-name="Group 3" transform="translate(334.781 -7.385) rotate(90)">
      <g id="Polygon_1-3" data-name="Polygon 1" transform="translate(186.657 158.615) rotate(45)">
        <path d="M 7.190984725952148 7.5 L 0.8090147376060486 7.5 L 3.999999761581421 1.118029952049255 L 7.190984725952148 7.5 Z" stroke="white"/>
        <path d="M 3.999999761581421 2.236070156097412 L 1.618034839630127 7 L 6.381964683532715 7 L 3.999999761581421 2.236070156097412 M 3.999999761581421 0 L 8 8 L -4.76837158203125e-07 8 L 3.999999761581421 0 Z" stroke="white" fill="#000"/>
      </g>
      <g id="Rectangle_66-3" data-name="Rectangle 66" transform="translate(186.525 158.318) rotate(45)" fill="#fff" stroke="white" stroke-width="1">
        <rect width="8" height="1" stroke="white"/>
        <rect x="0.5" y="0.5" width="7" fill="#05080f"/>
      </g>
    </g>
    <g id="Group_4" data-name="Group 4" transform="translate(313.781 12) rotate(90)">
      <g id="Polygon_1-4" data-name="Polygon 1" transform="translate(186.657 158.615) rotate(45)">
        <path d="M 7.190984725952148 7.5 L 0.8090147376060486 7.5 L 3.999999761581421 1.118029952049255 L 7.190984725952148 7.5 Z" stroke="white"/>
        <path d="M 3.999999761581421 2.236070156097412 L 1.618034839630127 7 L 6.381964683532715 7 L 3.999999761581421 2.236070156097412 M 3.999999761581421 0 L 8 8 L -4.76837158203125e-07 8 L 3.999999761581421 0 Z" stroke="white" fill="#000"/>
      </g>
      <g id="Rectangle_66-4" data-name="Rectangle 66" transform="translate(186.525 158.318) rotate(45)" fill="#fff" stroke="white" stroke-width="1">
        <rect width="8" height="1" stroke="white"/>
        <rect x="0.5" y="0.5" width="7" fill="#05080f"/>
      </g>
    </g>
    <g id="Rectangle_67" data-name="Rectangle 67" transform="translate(131 219)" Fill="#05080f" stroke="white" stroke-width="1">
      <rect width="30" height="1" stroke="white"/>
      <rect x="0.5" y="0.5" width="29" fill="#05080f"/>
    </g>
    <g id="Rectangle_68" data-name="Rectangle 68" transform="translate(160.5 210)" Fill="#05080f" stroke="white" stroke-width="1">
      <rect width="1" height="10" stroke="white"/>
      <rect x="0.5" y="0.5" height="9" fill="#05080f"/>
    </g>
    <g id="Rectangle_69" data-name="Rectangle 69" transform="translate(197 189)" Fill="#05080f" stroke="white" stroke-width="1">
      <rect width="20" height="1" stroke="white"/>
      <rect x="0.5" y="0.5" width="19" fill="#05080f"/>
    </g>
    <g id="Rectangle_70" data-name="Rectangle 70" transform="translate(127 141)" Fill="#05080f" stroke="white" stroke-width="1">
      <rect width="17" height="5" rx="2.5" stroke="white"/>
      <rect x="0.5" y="0.5" width="16" height="4" rx="2" fill="#05080f"/>
    </g>
    <text id="F1" transform="translate(142 139)" font-size="6" font-family="Arial-BoldMT, Arial" font-weight="700"><tspan fill="white" x="0" y="0">F1</tspan></text>
    <g id="Rectangle_71" data-name="Rectangle 71" transform="translate(160.5 143)" fill="#05080f" stroke="white" stroke-width="1">
      <rect width="1" height="26" stroke="white"/>
      <rect x="0.5" y="0.5" height="25" fill="#05080f"/>
    </g>
    <g id="Rectangle_72" data-name="Rectangle 72" transform="translate(196.5 144)" fill="#fff" stroke="white" stroke-width="1">
      <rect width="1" height="45.5" stroke="white"/>
      <rect x="0.5" y="0.5" height="44.5" fill="#05080f"/>
    </g>
    <g id="Rectangle_73" data-name="Rectangle 73" transform="translate(196.5 189)" Fill="#05080f" stroke="red" stroke-width="1">
      <rect width="1" height="1" stroke="white"/>
      <rect x="0.5" y="0.5" fill="#05080f"/>
    </g>
    <g id="Rectangle_74" data-name="Rectangle 74" transform="translate(217 187)" Fill="#05080f" stroke="white" stroke-width="1">
      <rect width="14" height="5" stroke="white"/>
      <rect x="0.5" y="0.5" width="13" height="4" fill="#05080f"/>
    </g>
    <g id="Rectangle_75" data-name="Rectangle 75" transform="translate(197 144)" Fill="#05080f" stroke="white" stroke-width="1">
      <rect width="43" height="1" stroke="white"/>
      <rect x="0.5" y="0.5" width="42" fill="#05080f"/>
    </g>
    <g id="Rectangle_76" data-name="Rectangle 76" transform="translate(231 189)" Fill="#05080f" stroke="white" stroke-width="1">
      <rect width="37" height="1" stroke="white"/>
      <rect x="0.5" y="0.5" width="36" fill="#05080f"/>
    </g>
    <g id="Rectangle_77" data-name="Rectangle 77" transform="translate(251 151)" Fill="#05080f" stroke="white" stroke-width="1">
      <rect width="1" height="38" stroke="white"/>
      <rect x="0.5" y="0.5" height="37" fill="#05080f"/>
    </g>
    <g id="Rectangle_78" data-name="Rectangle 78" transform="translate(247 151)" Fill="#05080f" stroke="white" stroke-width="1">
      <rect width="9" height="1" stroke="white"/>
      <rect x="0.5" y="0.5" width="8" fill="#05080f"/>
    </g>
    <line id="Line_12" data-name="Line 12" x2="8" y2="7" transform="translate(247.5 151.5) rotate(180)" fill="#05080f" stroke="white" stroke-width="1"/>
    <line id="Line_13" data-name="Line 13" x1="7" y2="7" transform="translate(255.5 144.5)" fill="#05080f" stroke="white" stroke-width="1"/>
    <g id="Rectangle_79" data-name="Rectangle 79" transform="translate(262 144)" fill="#fff" stroke="white" stroke-width="1">
      <rect width="68" height="1" stroke="white"/>
      <rect x="0.5" y="0.5" width="67" fill="#05080f"/>
    </g>
    <g id="Path_1" data-name="Path 1" transform="translate(246.676 149.149) rotate(140)">
      <path d="M 0.5770277380943298 2.303824901580811 L 1.328896880149841 0.9478760361671448 L 1.932976603507996 2.231887340545654 L 0.5770277380943298 2.303824901580811 Z" stroke="white"/>
      <path d="M 1.365405559539795 -0.1490421295166016 L 2.701915502548218 2.691797971725464 L -0.2980844974517822 2.850957870483398 L 1.365405559539795 -0.1490421295166016 Z" stroke="white" fill="#000"/>
    </g>
    <g id="Rectangle_80" data-name="Rectangle 80" transform="translate(251 189)" Fill="#05080f" stroke="red" stroke-width="1">
      <rect width="1" height="1" stroke="white"/>
      <rect x="0.5" y="0.5" fill="#05080f"/>
    </g>
    <g id="Rectangle_81" data-name="Rectangle 81" transform="translate(267 182)" Fill="#05080f" stroke="white" stroke-width="1">
      <rect width="42" height="15" stroke="white"/>
      <rect x="0.5" y="0.5" width="41" height="14" fill="#05080f"/>
    </g>
    <text id="IN" transform="translate(269 191.5)" font-size="6" font-family="Arial-BoldMT, Arial" font-weight="700"><tspan fill="white" x="0" y="0">IN</tspan></text>
    <text id="UIT_" data-name="UIT
" transform="translate(297 191.5)" font-size="6" font-family="Arial-BoldMT, Arial" font-weight="700"><tspan fill="white" x="0" y="0">UIT</tspan><tspan fill="white" x="0" y="6"></tspan></text>
    <text id="GND_" data-name="GND

" transform="translate(286 186.5) rotate(90)" font-size="4" font-family="Arial-BoldMT, Arial" font-weight="700"><tspan fill="white" x="0" y="0">GND</tspan><tspan fill="white" x="0" y="5"></tspan><tspan fill="white" x="0" y="10"></tspan></text>
    <g id="Rectangle_82" data-name="Rectangle 82" transform="translate(309 189)" fill="#fff" stroke="white" stroke-width="1">
      <rect width="168" height="1" stroke="white"/>
      <rect x="0.5" y="0.5" width="167" fill="#05080f"/>
    </g>
    <g id="Rectangle_83" data-name="Rectangle 83" transform="translate(329 144)" Fill="#05080f" stroke="white" stroke-width="1">
      <rect width="1" height="46" stroke="white"/>
      <rect x="0.5" y="0.5" height="45" fill="#05080f"/>
    </g>
    <g id="Rectangle_85" data-name="Rectangle 85" transform="translate(287 197)" Fill="#05080f" stroke="white" stroke-width="1">
      <rect width="1" height="69" stroke="white"/>
      <rect x="0.5" y="0.5" height="68" fill="#05080f"/>
    </g>
    <g id="Rectangle_86" data-name="Rectangle 86" transform="translate(196.5 190)" Fill="#05080f" stroke="white" stroke-width="1">
      <rect width="1" height="75" stroke="white"/>
      <rect x="0.5" y="0.5" height="74" fill="#05080f"/>
    </g>
    <g id="Rectangle_88" data-name="Rectangle 88" transform="translate(192 222)" Fill="#05080f" stroke="white" stroke-width="1">
      <rect width="10" height="1" stroke="white"/>
      <rect x="0.5" y="0.5" width="9" fill="#05080f"/>
    </g>
    <g id="Ellipse_17" data-name="Ellipse 17" transform="translate(192 223.9)" Fill="#05080f" stroke="white" stroke-width="1">
      <circle cx="5" cy="5" r="5" stroke="white"/>
      <circle cx="5" cy="5" r="4.5" fill="#05080f"/>
    </g>
    <rect id="Rectangle_89" data-name="Rectangle 89" width="12" height="1" transform="translate(191 223)" Fill="#05080f"/>
    <rect id="Rectangle_90" data-name="Rectangle 90" width="12" height="8" transform="translate(191 226)" Fill="#05080f"/>
    <g id="Rectangle_91" data-name="Rectangle 91" transform="translate(196.5 224)" fill="#05080f" stroke="white" stroke-width="1">
      <rect width="1" height="10" stroke="white"/>
      <rect x="0.5" y="0.5" height="9" fill="#05080f"/>
    </g>
    <text id="C1" transform="translate(202 220)" font-size="4" font-family="Arial-BoldMT, Arial" font-weight="700"><tspan fill="white" x="0" y="0">C1</tspan></text>
    <g id="Rectangle_92" data-name="Rectangle 92" transform="translate(251 190)" fill="#fff" stroke="white" stroke-width="1">
      <rect width="1" height="75" stroke="white"/>
      <rect x="0.5" y="0.5" height="74" fill="#05080f"/>
    </g>
    <g id="Rectangle_93" data-name="Rectangle 93" transform="translate(246.5 222)" fill="#fff" stroke="white" stroke-width="1">
      <rect width="10" height="1" stroke="white"/>
      <rect x="0.5" y="0.5" width="9" fill="#05080f"/>
    </g>
    <g id="Ellipse_18" data-name="Ellipse 18" transform="translate(246.5 223.9)" fill="#fff" stroke="white" stroke-width="1">
      <circle cx="5" cy="5" r="5" stroke="white"/>
      <circle cx="5" cy="5" r="4.5" fill="#05080f"/>
    </g>
    <rect id="Rectangle_94" data-name="Rectangle 94" width="12" height="1" transform="translate(245.5 223)" Fill="#05080f"/>
    <rect id="Rectangle_95" data-name="Rectangle 95" width="12" height="8" transform="translate(245.5 226)" Fill="#05080f"/>
    <g id="Rectangle_96" data-name="Rectangle 96" transform="translate(251 224)" Fill="#05080f" stroke="white" stroke-width="1">
      <rect width="1" height="10" stroke="white"/>
      <rect x="0.5" y="0.5" height="9" fill="#05080f"/>
    </g>
    <text id="C2_" data-name="C2
" transform="translate(256.5 220)" font-size="4" font-family="Arial-BoldMT, Arial" font-weight="700"><tspan fill="white" x="0" y="0">C2</tspan><tspan fill="white" x="0" y="5"></tspan></text>
    <g id="Rectangle_97" data-name="Rectangle 97" transform="translate(348.5 189)" Fill="#fff" stroke="white" stroke-width="1">
      <rect width="1" height="76" stroke="white"/>
      <rect x="0.5" y="0.5" height="75" fill="#05080f"/>
    </g>
    <g id="Rectangle_98" data-name="Rectangle 98" transform="translate(344 221)" Fill="#05080f" stroke="white" stroke-width="1">
      <rect width="10" height="1" stroke="white"/>
      <rect x="0.5" y="0.5" width="9" fill="#05080f"/>
    </g>
    <g id="Ellipse_19" data-name="Ellipse 19" transform="translate(344 222.9)" Fill="#fff" stroke="white" stroke-width="1">
      <circle cx="5" cy="5" r="5" stroke="white"/>
      <circle cx="5" cy="5" r="4.5" fill="#05080f"/>
    </g>
    <rect id="Rectangle_99" data-name="Rectangle 99" width="12" height="1" transform="translate(343 222)" Fill="#05080f"/>
    <rect id="Rectangle_100" data-name="Rectangle 100" width="12" height="8" transform="translate(343 225)" Fill="#05080f"/>
    <g id="Rectangle_101" data-name="Rectangle 101" transform="translate(348.5 223)" Fill="#05080f" stroke="white" stroke-width="1">
      <rect width="1" height="10" stroke="white"/>
      <rect x="0.5" y="0.5" height="9" fill="#05080f"/>
    </g>
    <text id="C3_" data-name="C3
" transform="translate(354 219)" font-size="4" font-family="Arial-BoldMT, Arial" font-weight="700"><tspan fill="white" x="0" y="0">C3</tspan><tspan fill="white" x="0" y="5"></tspan></text>
    <g id="Rectangle_102" data-name="Rectangle 102" transform="translate(329 190)" Fill="#fff" stroke="white" stroke-width="1">
      <rect width="1" height="34" stroke="white"/>
      <rect x="0.5" y="0.5" height="33" fill="#05080f"/>
    </g>
    <g id="Rectangle_103" data-name="Rectangle 103" transform="translate(291 224)" fill="#fff" stroke="white" stroke-width="1">
      <rect width="39" height="1" stroke="white"/>
      <rect x="0.5" y="0.5" width="38" fill="#05080f"/>
    </g>
    <g id="Rectangle_104" data-name="Rectangle 104" transform="translate(287 210)" fill="#fff" stroke="white" stroke-width="1">
      <rect width="43" height="1" stroke="white"/>
      <rect x="0.5" y="0.5" width="42" fill="#05080f"/>
    </g>
    <g id="Rectangle_105" data-name="Rectangle 105" transform="translate(287 210)" fill="#fff" stroke="red" stroke-width="1">
      <rect width="1" height="1" stroke="white"/>
      <rect x="0.5" y="0.5" fill="#05080f"/>
    </g>
    <g id="Rectangle_106" data-name="Rectangle 106" transform="translate(329 210)" fill="#fff" stroke="red" stroke-width="1">
      <rect width="1" height="1" stroke="white"/>
      <rect x="0.5" y="0.5" fill="#05080f"/>
    </g>
    <g id="Rectangle_107" data-name="Rectangle 107" transform="translate(329 189)" fill="#fff" stroke="red" stroke-width="1">
      <rect width="1" height="1" stroke="white"/>
      <rect x="0.5" y="0.5" fill="#05080f"/>
    </g>
    <g id="Rectangle_108" data-name="Rectangle 108" transform="translate(348.5 189)" fill="#fff" stroke="red" stroke-width="1">
      <rect width="1" height="1" stroke="white"/>
      <rect x="0.5" y="0.5" fill="#05080f"/>
    </g>
    <g id="Rectangle_109" data-name="Rectangle 109" transform="translate(285 218)" fill="#fff" stroke="white" stroke-width="1">
      <rect width="5" height="14" stroke="white"/>
      <rect x="0.5" y="0.5" width="4" height="13" fill="#05080f"/>
    </g>
    <g id="Polygon_2" data-name="Polygon 2" transform="translate(290 227.5) rotate(-90)">
      <path d="M 4.792900085449219 2.5 L 1.207100033760071 2.5 L 3 0.707099974155426 L 4.792900085449219 2.5 Z" stroke="white"/>
      <path d="M 3 1.414219975471497 L 2.414220094680786 2 L 3.585779905319214 2 L 3 1.414219975471497 M 3 0 L 6 3 L 0 3 L 3 0 Z" stroke="white" fill="#000"/>
    </g>
    <g id="Rectangle_110" data-name="Rectangle 110" transform="translate(327 193)" fill="#fff" stroke="white" stroke-width="1">
      <rect width="5" height="14" stroke="white"/>
      <rect x="0.5" y="0.5" width="4" height="13" fill="#05080f"/>
    </g>
    <text id="W1" transform="translate(292 219)" font-size="4" font-family="Arial-BoldMT, Arial" font-weight="700"><tspan fill="white" x="0" y="0">W1</tspan></text>
    <text id="W2" transform="translate(335 196)" font-size="4" font-family="Arial-BoldMT, Arial" font-weight="700"><tspan fill="white" x="0" y="0">W2</tspan></text>
    <g id="Rectangle_111" data-name="Rectangle 111" transform="translate(196.5 265)" fill="red" stroke="red" stroke-width="1">
      <rect width="1" height="1" stroke="white"/>
      <rect x="0.5" y="0.5" fill="#05080f"/>
    </g>
    <g id="Rectangle_112" data-name="Rectangle 112" transform="translate(287 265)" fill="red" stroke="red" stroke-width="1">
      <rect width="1" height="1" stroke="white"/>
      <rect x="0.5" y="0.5" fill="#05080f"/>
    </g>
    <g id="Rectangle_113" data-name="Rectangle 113" transform="translate(348.5 265)" fill="red" stroke="red" stroke-width="1">
      <rect width="1" height="1" stroke="white"/>
      <rect x="0.5" y="0.5" fill="#05080f"/>
    </g>
    <g id="Rectangle_114" data-name="Rectangle 114" transform="translate(388 265)" fill="red" stroke="red" stroke-width="1">
      <rect width="1" height="1" stroke="white"/>
      <rect x="0.5" y="0.5" fill="#05080f"/>
    </g>
    <g id="Rectangle_115" data-name="Rectangle 115" transform="translate(388 190)" fill="#fff" stroke="white" stroke-width="1">
      <rect width="1" height="75" stroke="white"/>
      <rect x="0.5" y="0.5" height="74" fill="#05080f"/>
    </g>
    <g id="Rectangle_116" data-name="Rectangle 116" transform="translate(368 198)" fill="#fff" stroke="white" stroke-width="1">
      <rect width="65" height="37" rx="6" stroke="white"/>
      <rect x="0.5" y="0.5" width="64" height="36" rx="5.5" fill="#05080f"/>
    </g>
    <g id="Rectangle_117" data-name="Rectangle 117" transform="translate(433 205)" fill="#fff" stroke="white" stroke-width="1">
      <rect width="14" height="1" stroke="white"/>
      <rect x="0.5" y="0.5" width="13" fill="#05080f"/>
    </g>
    <g id="Rectangle_118" data-name="Rectangle 118" transform="translate(433 224)" fill="#fff" stroke="white" stroke-width="1">
      <rect width="14" height="1" stroke="white"/>
      <rect x="0.5" y="0.5" width="13" fill="#05080f"/>
    </g>
    <g id="Rectangle_119" data-name="Rectangle 119" transform="translate(447 205)" fill="#fff" stroke="white" stroke-width="1">
      <rect width="1" height="6" stroke="white"/>
      <rect x="0.5" y="0.5" height="5" fill="#05080f"/>
    </g>
    <g id="Rectangle_120" data-name="Rectangle 120" transform="translate(443 210)" fill="#fff" stroke="white" stroke-width="1">
      <rect width="9" height="1" stroke="white"/>
      <rect x="0.5" y="0.5" width="8" fill="#05080f"/>
    </g>
    <g id="Rectangle_121" data-name="Rectangle 121" transform="translate(447 213)" fill="#fff" stroke="white" stroke-width="1">
      <rect width="1" height="1" stroke="white"/>
      <rect x="0.5" y="0.5" fill="#05080f"/>
    </g>
    <g id="Rectangle_122" data-name="Rectangle 122" transform="translate(445 213)" fill="#fff" stroke="white" stroke-width="1">
      <rect width="5" height="1" stroke="#05080f"/>
      <rect x="0.5" y="0.5" width="4" fill="#05080f"/>
    </g>
    <g id="Rectangle_123" data-name="Rectangle 123" transform="translate(447 214)" fill="#fff" stroke="white" stroke-width="1">
      <rect width="1" height="11" stroke="white"/>
      <rect x="0.5" y="0.5" height="10" fill="#05080f"/>
    </g>
    <g id="Rectangle_124" data-name="Rectangle 124" transform="translate(445 214)" fill="#fff" stroke="white" stroke-width="1">
      <rect width="5" height="1" stroke="white"/>
      <rect x="0.5" y="0.5" width="4" fill="#05080f"/>
    </g>
    <text id="_" data-name="+" transform="translate(452 209)" font-size="4" font-family="Arial-BoldMT, Arial" font-weight="700"><tspan fill="white" x="0" y="0">+</tspan></text>
    <text id="_-" data-name="-" transform="translate(442 217)" font-size="4" font-family="Arial-BoldMT, Arial" font-weight="700"><tspan fill="white" x="0" y="0">-</tspan></text>
    <text id="_9V" data-name="9V" transform="translate(450 219)" font-size="4" font-family="Arial-BoldMT, Arial" font-weight="700"><tspan fill="white" x="0" y="0">9V</tspan></text>
    <g id="Rectangle_125" data-name="Rectangle 125" transform="translate(251 265)" fill="red" stroke="red" stroke-width="1">
      <rect width="1" height="1" stroke="white"/>
      <rect x="0.5" y="0.5" fill="#05080f"/>
    </g>
    <g id="Rectangle_126" data-name="Rectangle 126" transform="translate(397 235)" fill="#fff" stroke="white" stroke-width="1">
      <rect width="1" height="26" stroke="white"/>
      <rect x="0.5" y="0.5" height="25" fill="#05080f"/>
    </g>
    <g id="Rectangle_131" data-name="Rectangle 131" transform="translate(407 235)" fill="#fff" stroke="white" stroke-width="1">
      <rect width="1" height="26" stroke="white"/>
      <rect x="0.5" y="0.5" height="25" fill="#05080f"/>
    </g>
    <g id="Rectangle_134" data-name="Rectangle 134" transform="translate(398 260)" fill="#fff" stroke="white" stroke-width="1">
      <rect width="10" height="1" stroke="white"/>
      <rect x="0.5" y="0.5" width="9" fill="#05080f"/>
    </g>
    <g id="Rectangle_135" data-name="Rectangle 135" transform="translate(405 240)" fill="#fff" stroke="white" stroke-width="1">
      <rect width="5" height="14" stroke="white"/>
      <rect x="0.5" y="0.5" width="4" height="13" fill="#05080f"/>
    </g>
    <g id="Rectangle_136" data-name="Rectangle 136" transform="translate(416 235)" fill="#fff" stroke="white" stroke-width="1">
      <rect width="1" height="26" stroke="white"/>
      <rect x="0.5" y="0.5" height="25" fill="#05080f"/>
    </g>
    <g id="Rectangle_137" data-name="Rectangle 137" transform="translate(426 235)" fill="#fff" stroke="white" stroke-width="1">
      <rect width="1" height="26" stroke="white"/>
      <rect x="0.5" y="0.5" height="25" fill="#05080f"/>
    </g>
    <g id="Rectangle_138" data-name="Rectangle 138" transform="translate(417 260)" fill="#fff" stroke="white" stroke-width="1">
      <rect width="10" height="1" stroke="white"/>
      <rect x="0.5" y="0.5" width="9" fill="#05080f"/>
    </g>
    <g id="Rectangle_139" data-name="Rectangle 139" transform="translate(424 240)" fill="#fff" stroke="white" stroke-width="1">
      <rect width="5" height="14" stroke="white"/>
      <rect x="0.5" y="0.5" width="4" height="13" fill="#05080f"/>
    </g>
    <text id="K1" transform="translate(401 239)" font-size="4" font-family="Arial-BoldMT, Arial" font-weight="700"><tspan fill="white" x="0" y="0">K1</tspan></text>
    <text id="K2" transform="translate(420 239)" font-size="4" font-family="Arial-BoldMT, Arial" font-weight="700"><tspan fill="white" x="0" y="0">K2</tspan></text>
    <text id="Indicatorscherm" transform="translate(390 197)" font-size="4" font-family="Arial-BoldMT, Arial" font-weight="700"><tspan fill="white" x="0" y="0">Indicatorscherm</tspan></text>
    <g id="Rectangle_140" data-name="Rectangle 140" transform="translate(476 187)" fill="#fff" stroke="white" stroke-width="1">
      <rect width="12" height="5" rx="2.5" stroke="white"/>
      <rect x="0.5" y="0.5" width="11" height="4" rx="2" fill="#05080f"/>
    </g>
    <g id="Rectangle_141" data-name="Rectangle 141" transform="translate(476 263)" fill="#fff" stroke="white" stroke-width="1">
      <rect width="12" height="5" rx="2.5" stroke="white"/>
      <rect x="0.5" y="0.5" width="11" height="4" rx="2" fill="#05080f"/>
    </g>
    <text id="_2" data-name="+" transform="translate(481 186)" font-size="4" font-family="Arial-BoldMT, Arial" font-weight="700"><tspan fill="white" x="0" y="0">+</tspan></text>
    <text id="_--2" data-name="-" transform="translate(481.5 262)" font-size="4" font-family="Arial-BoldMT, Arial" font-weight="700"><tspan fill="white" x="0" y="0">-</tspan></text>
    <text id="_1-15_VDC" data-name="1-15 VDC" transform="translate(448 188)" font-size="6" font-family="Arial-BoldMT, Arial" font-weight="700"><tspan fill="white" x="0" y="0">1-15 VDC</tspan></text>
  </g>
</svg>
