<svg xmlns="http://www.w3.org/2000/svg" width="500" height="500" viewBox="0 0 500 500">
  <rect id="Rectangle_652" data-name="Rectangle 652" width="500" height="500" fill="#05080f"/>
  <path id="Path_7" data-name="Path 7" d="M117.167.111l-6.039.626C81.822,3.661,52.3,18.767,32.333,41.066,10.256,65.727-.962,96.329.07,128.934a125.106,125.106,0,0,0,246.618,25.552c2.691-10.962,3.317-16.545,3.317-29.508s-.626-18.546-3.317-29.508A125.086,125.086,0,0,0,140.746.877C136.3.3,120.14-.217,117.167.111m21.279,24.207a99.239,99.239,0,0,1,31.089,9.336A93.184,93.184,0,0,1,196.87,53.248a93.139,93.139,0,0,1,19.6,27.319,97,97,0,0,1,10.108,44.411,96.722,96.722,0,0,1-10.327,44.833c-2.691,5.489-8.12,14.293-10.655,17.28l-.861,1.016-71.394-71.37L61.936,45.382l1.017-.86c2.988-2.533,11.8-7.96,17.289-10.649a100.749,100.749,0,0,1,58.2-9.555m-21.482,109.01,71.347,71.323-1.048.829a119.865,119.865,0,0,1-17.3,10.634,105.812,105.812,0,0,1-31.089,9.633c-6.634,1.016-20.9,1.016-27.538,0-30.479-4.629-56.2-21.252-72.4-46.8a117.287,117.287,0,0,1-9.92-20.829,103.466,103.466,0,0,1-2.957-56.045A105.792,105.792,0,0,1,43.207,64.726a18.641,18.641,0,0,1,2.206-2.705c.11,0,32.31,32.088,71.551,71.308" transform="translate(124.995 124.992)" fill="#191919" fill-rule="evenodd"/>
  <g id="Rectangle_653" data-name="Rectangle 653" transform="translate(50 50)" fill="none" stroke="#aaa3a3" stroke-linejoin="bevel" stroke-width="3">
    <rect width="400" height="400" rx="8" stroke="none"/>
    <rect x="1.5" y="1.5" width="397" height="397" rx="6.5" fill="none"/>
  </g>
  <text id="SORRY" transform="translate(114 135)" fill="#cac8ce" font-size="73" font-family="Novatica-Bold, Novatica" font-weight="700"><tspan x="0" y="0">SORRY</tspan></text>
  <text id="Deze_afbeelding_bestaat_niet_meer_is_verplaatst_of_is_wegens_auteursrechten_verwijderd_van_onze_website._We_proberen_zo_snel_mogelijk_een_vervangende_afbeelding_terug_te_plaatsen._Excuses_voor_het_ongemak" data-name="Deze afbeelding bestaat niet meer, is verplaatst of is wegens auteursrechten verwijderd van onze website. We proberen zosnel mogelijk een vervangendeafbeelding terug te plaatsen.

Excuses voor het ongemak" transform="translate(250 213)" fill="#cac8ce" font-size="23" font-family="NovaticaLight, Novatica"><tspan x="-153.599" y="0">Deze afbeelding bestaat niet </tspan><tspan x="-166.138" y="27">meer, is verplaatst of is wegens </tspan><tspan x="-161.051" y="54">auteursrechten verwijderd van </tspan><tspan x="-155.66" y="81">onze website. We proberen zo</tspan><tspan x="-158.945" y="108">snel mogelijk een vervangende</tspan><tspan x="-150.196" y="135">afbeelding terug te plaatsen.</tspan><tspan x="0" y="162"></tspan><tspan font-size="19" font-family="Novatica-Bold, Novatica" font-weight="700"><tspan x="-127.73" y="185">Excuses voor het ongemak</tspan></tspan></text>
</svg>
