<svg xmlns="http://www.w3.org/2000/svg" width="471" height="186" viewBox="0 0 471 186">
  <g id="Group_13" data-name="Group 13" transform="translate(0 -72)">
    <rect id="Rectangle_632" data-name="Rectangle 632" width="157" height="167" transform="translate(0 72)" fill="#05080f"/>
    <g id="Rectangle_633" data-name="Rectangle 633" transform="translate(156 72)" fill="#fff" stroke="#343333" stroke-width="1">
      <rect width="1" height="167" stroke="none"/>
      <rect x="0.5" y="0.5" height="166" fill="none"/>
    </g>
    <g id="Rectangle_634" data-name="Rectangle 634" transform="translate(31 123)" fill="#fff" stroke="#fff" stroke-width="1">
      <rect width="1" height="91" stroke="none"/>
      <rect x="0.5" y="0.5" height="90" fill="none"/>
    </g>
    <g id="Rectangle_635" data-name="Rectangle 635" transform="translate(122 123) rotate(90)" fill="#fff" stroke="#fff" stroke-width="1">
      <rect width="1" height="91" stroke="none"/>
      <rect x="0.5" y="0.5" height="90" fill="none"/>
    </g>
    <g id="Rectangle_636" data-name="Rectangle 636" transform="translate(121 123)" fill="#fff" stroke="#fff" stroke-width="1">
      <rect width="1" height="91" stroke="none"/>
      <rect x="0.5" y="0.5" height="90" fill="none"/>
    </g>
    <rect id="Rectangle_637" data-name="Rectangle 637" width="157" height="167" transform="translate(157 72)" fill="#05080f"/>
    <g id="Rectangle_638" data-name="Rectangle 638" transform="translate(313 72)" fill="#fff" stroke="#343333" stroke-width="1">
      <rect width="1" height="167" stroke="none"/>
      <rect x="0.5" y="0.5" height="166" fill="none"/>
    </g>
    <g id="Rectangle_639" data-name="Rectangle 639" transform="translate(188 123)" fill="#fff" stroke="#fff" stroke-width="1">
      <rect width="1" height="91" stroke="none"/>
      <rect x="0.5" y="0.5" height="90" fill="none"/>
    </g>
    <g id="Rectangle_640" data-name="Rectangle 640" transform="translate(279 123) rotate(90)" fill="#fff" stroke="#fff" stroke-width="1">
      <rect width="1" height="91" stroke="none"/>
      <rect x="0.5" y="0.5" height="90" fill="none"/>
    </g>
    <g id="Rectangle_641" data-name="Rectangle 641" transform="translate(278 123)" fill="#fff" stroke="#fff" stroke-width="1">
      <rect width="1" height="91" stroke="none"/>
      <rect x="0.5" y="0.5" height="90" fill="none"/>
    </g>
    <g id="Rectangle_642" data-name="Rectangle 642" transform="translate(278.293 123.5) rotate(45)" fill="#fff" stroke="#fff" stroke-width="1">
      <rect width="1" height="127" stroke="none"/>
      <rect x="0.5" y="0.5" height="126" fill="none"/>
    </g>
    <rect id="Rectangle_643" data-name="Rectangle 643" width="157" height="167" transform="translate(314 72)" fill="#05080f"/>
    <g id="Rectangle_645" data-name="Rectangle 645" transform="translate(344 167)" fill="#fff" stroke="#fff" stroke-width="1">
      <rect width="1" height="91" stroke="none"/>
      <rect x="0.5" y="0.5" height="90" fill="none"/>
    </g>
    <g id="Rectangle_646" data-name="Rectangle 646" transform="translate(435 166) rotate(90)" fill="#fff" stroke="#fff" stroke-width="1">
      <rect width="1" height="91" stroke="none"/>
      <rect x="0.5" y="0.5" height="90" fill="none"/>
    </g>
    <g id="Rectangle_647" data-name="Rectangle 647" transform="translate(435 166)" fill="#fff" stroke="#fff" stroke-width="1">
      <rect width="1" height="91" stroke="none"/>
      <rect x="0.5" y="0.5" height="90" fill="none"/>
    </g>
    <g id="Rectangle_648" data-name="Rectangle 648" transform="translate(435.048 166.5) rotate(45)" fill="#fff" stroke="#fff" stroke-width="1">
      <rect width="1" height="127" stroke="none"/>
      <rect x="0.5" y="0.5" height="126" fill="none"/>
    </g>
    <g id="Rectangle_649" data-name="Rectangle 649" transform="translate(344 76)" fill="#fff" stroke="#fff" stroke-width="1">
      <rect width="1" height="91" stroke="none"/>
      <rect x="0.5" y="0.5" height="90" fill="none"/>
    </g>
    <g id="Rectangle_650" data-name="Rectangle 650" transform="translate(435 76)" fill="#fff" stroke="#fff" stroke-width="1">
      <rect width="1" height="91" stroke="none"/>
      <rect x="0.5" y="0.5" height="90" fill="none"/>
    </g>
    <g id="Rectangle_651" data-name="Rectangle 651" transform="translate(436 76) rotate(90)" fill="#fff" stroke="#fff" stroke-width="1">
      <rect width="1" height="91" stroke="none"/>
      <rect x="0.5" y="0.5" height="90" fill="none"/>
    </g>
  </g>
</svg>
