<svg data-v-fde0c5aa="" xmlns="http://www.w3.org/2000/svg" viewBox="0 0 300 300" class="iconLeftSlogan"><!----><defs data-v-fde0c5aa=""><!----></defs><rect data-v-fde0c5aa="" fill="#000000" x="0" y="0" width="300px" height="300px" class="logo-background-square"></rect><defs data-v-fde0c5aa=""><!----></defs><g data-v-fde0c5aa="" id="1f047278-f497-41d8-9685-ef2a98a0d68b" fill="#FFFFFF" transform="matrix(5.746804020707854,0,0,5.746804020707854,170.29238949707792,87.70408395961647)"><path d="M7.13 14L7.13 14Q7.03 14 7 13.90L7 13.90L6.34 11.90L6.34 11.90Q6.34 11.89 6.32 11.88L6.32 11.88L6.32 11.88Q6.30 11.87 6.29 11.87L6.29 11.87L1.69 11.87L1.69 11.87Q1.68 11.87 1.66 11.88L1.66 11.88L1.66 11.88Q1.64 11.89 1.64 11.90L1.64 11.90L0.98 13.90L0.98 13.90Q0.95 14 0.85 14L0.85 14L0.66 14L0.66 14Q0.60 14 0.57 13.96L0.57 13.96L0.57 13.96Q0.55 13.93 0.56 13.87L0.56 13.87L3.72 4.30L3.72 4.30Q3.75 4.20 3.85 4.20L3.85 4.20L4.10 4.20L4.10 4.20Q4.20 4.20 4.23 4.30L4.23 4.30L7.41 13.87L7.42 13.92L7.42 13.92Q7.42 13.94 7.38 13.97L7.38 13.97L7.38 13.97Q7.35 14 7.31 14L7.31 14L7.13 14ZM1.78 11.45L1.78 11.45Q1.76 11.49 1.82 11.49L1.82 11.49L6.15 11.49L6.15 11.49Q6.22 11.49 6.19 11.45L6.19 11.45L4.00 4.80L4.00 4.80Q3.99 4.79 3.98 4.79L3.98 4.79L3.98 4.79Q3.96 4.79 3.95 4.80L3.95 4.80L1.78 11.45ZM13.96 8.90L13.96 8.90Q13.94 8.92 13.94 8.93L13.94 8.93L13.94 8.93Q13.94 8.95 13.96 8.96L13.96 8.96L13.96 8.96Q14.74 9.24 15.18 9.87L15.18 9.87L15.18 9.87Q15.61 10.50 15.61 11.38L15.61 11.38L15.61 11.38Q15.61 12.57 14.87 13.29L14.87 13.29L14.87 13.29Q14.13 14 12.91 14L12.91 14L9.66 14L9.66 14Q9.55 14 9.55 13.89L9.55 13.89L9.55 4.31L9.55 4.31Q9.55 4.20 9.66 4.20L9.66 4.20L12.82 4.20L12.82 4.20Q14.04 4.20 14.78 4.88L14.78 4.88L14.78 4.88Q15.51 5.56 15.51 6.69L15.51 6.69L15.51 6.69Q15.51 7.49 15.10 8.06L15.10 8.06L15.10 8.06Q14.69 8.64 13.96 8.90L13.96 8.90ZM10.01 4.59L10.01 4.59Q9.97 4.59 9.97 4.63L9.97 4.63L9.97 8.69L9.97 8.69Q9.97 8.74 10.01 8.74L10.01 8.74L12.82 8.74L12.82 8.74Q13.85 8.74 14.47 8.18L14.47 8.18L14.47 8.18Q15.09 7.62 15.09 6.71L15.09 6.71L15.09 6.71Q15.09 5.75 14.47 5.17L14.47 5.17L14.47 5.17Q13.85 4.59 12.82 4.59L12.82 4.59L10.01 4.59ZM12.91 13.59L12.91 13.59Q13.94 13.59 14.57 12.98L14.57 12.98L14.57 12.98Q15.19 12.38 15.19 11.37L15.19 11.37L15.19 11.37Q15.19 10.35 14.55 9.74L14.55 9.74L14.55 9.74Q13.90 9.13 12.84 9.13L12.84 9.13L10.01 9.13L10.01 9.13Q9.97 9.13 9.97 9.17L9.97 9.17L9.97 13.55L9.97 13.55Q9.97 13.59 10.01 13.59L10.01 13.59L12.91 13.59Z"></path></g><defs data-v-fde0c5aa=""><!----></defs><g data-v-fde0c5aa="" id="97cf60c6-5c0e-4b90-aa2b-e7391f1a42a4" stroke="none" fill="#FFFFFF" transform="matrix(1.3061827659947653,0,0,1.3061827659947653,34.93723569367543,85.18068023750978)"><path d="M49.999 3.5C24.565 3.5 3.876 24.194 3.876 49.623c0 25.434 20.688 46.127 46.122 46.127 25.437 0 46.125-20.693 46.125-46.127C96.123 24.194 75.436 3.5 49.999 3.5zm34.98 65.469c.011-.108.05-.155.07-.244-6.768 12.401-19.928 20.812-35.05 20.812-22.04 0-39.909-17.868-39.909-39.915 0-2.438.253-4.805.663-7.122.315 0 .435 1.267.832 1.371.318.089.667-.872.861-.122.268.054.137 1.348.246 1.609.273.682.787 1.05 1.316 1.224-.165.582-.075 1.067-.033 1.659.051.636-.491 1.292-.337 1.903.055.014.097.034.157.049-.013-.069.037-.207.099-.29.604.2.211 3.273 1.016 3.603.407.174.474-1.803 1.318-1.51.405.154.067 1.211.107 1.505.005.015.67-.606.732-.705-.144-.492-.161-1.848-1.055-1.463-1.877.812-1.068-2.469-.695-3.447.434-1.125 2.053-3.192-.129-3.321-1.8-.109.28-1.798.507-2.205.174-.194.318-.362.483-.721.253-.521.699-.914.961-1.445-2.036-.362-2.123 2.284-4.005 1.873-1.378-.288 1.606-5.25 1.761-5.607.002 0 .017.004.028.01.581-1.021 1.323-1.5 2.334-2.041.678-.373 1.145.656 1.641.432-.075-.168.152-.335.33-.619-.111.05-.089.05-.188-.017.293-.094.562-.03.824-.094-.097.161 1.617.437 1.629.472.067.249-1.09 3.204-.474 3.293.687.087 1.229-1.965 1.283-2.434.189-1.823 1.57-2.475 3.095-3.139l-.025-.034c.383-.254.843-.316 1.202-.599-.278-.316.147-.213.304-.432-.072-.022-.129-.042-.129-.167a.568.568 0 0 0 .419-.367c-.032 0-.074 0-.109-.002-.047-.127.415-.917.536-1.026-.022.057-.208.82-.236.812.536.017.631-.874.899-1.04-.084-.214 1.418-.761 1.769-.848-.09-.099-.437-.007-.557-.015.606-.261 1.428-.231 1.989-.434-.906.03.733-1.337 1.274-1.222.521.114 1.588-.626 2.229-.646-.125.169-.082.239.146.209-.856.04-1.53 1.123-.884.787.39-.206 2.121-.477 2.287-.807.098-.191-1.925-.059-1.028-1.171-.08 0-.238-.035-.378-.035.251-.164.731-.094.899-.397.2-.357-2.319.227-2.451.233 1.045-.829 6.065-.656 5.565-2.349-.152.045-1.782.475-1.817.275.373-.108 1.303-.198 1.498-.38.127-.148-1.302-.03-1.019-.501l.021-.02c-.335.002-.45-.119-.586-.202.854-.27-.219-1.708-.717-1.037a.601.601 0 0 0 .225.175c-.221-.075-.387-.129-.136-.571-.412.754-2.083.269-2.643.011-1.941-.939-1.351.352-2.811.682.029.692 1.016.692-.333 1.234-1.088.437-.444.671-1 1.279-.487.013-.67-.032-.72-.106a.73.73 0 0 0 .271.044c.116-.149-.132-.149-.276-.12.044-.21.601-.556.216-.829-1.132.042-.993-.783-2.406-.723.387-.401.45-.639-.146-.537.768-.514 2.24-.974 2.841-1.522a.328.328 0 0 0-.159-.099c.695.06 1.875-.065 2.329-.463-.325-.037-.738.011-.698-.161.331.099.728.097 1.145.042-.367.159-.872.437-1.056.596.098-.015.333-.044.495-.027-.092.067-.202.135-.06.131.551-.029 1.473-.121 2.019-.283-.03-.064-.272-.029-.379-.099-.04-.02.04-.062.027-.104-.049-.145-.591-.219-.718-.165.013-.035 0-.069.008-.102.129-.027.255-.066.385-.096-.052.039-.013.076.129.076-.02-.049.05-.116-.106-.081.764-.216 1.498-.574 1.867-.887-.193 0-.419-.092-.613-.107.283-.007.517-.017.651-.013-.184.138.718-.099.951.033-.01 0-.017.005-.025.005a.395.395 0 0 1 .209.108c-.095.024-.194.058-.281.078.007-.018.571.002.696.065a.935.935 0 0 0-.639.156c-.015.016.757.228.765-.085.48.346-.943.606-.551.74-.504.221-1.452.074-1.806.547-.057.079 1.565-.1 1.721-.026.385.189 1.112.632 1.723.498.489-.109-.432-.556-.427-.551.835-.138.805.28 1.028-.433-.29.03-.38-.244-.582-.226.048-.142.115-.057.165-.152.387.06 1.174.281 1.242-.208.005-.03-1.048-.392-1.125-.422.09-.054.146-.059.271-.099a.424.424 0 0 0-.3-.037c.08-.047.167-.047.267-.062a.266.266 0 0 0-.275-.085c.009-.024.02-.044.028-.06-.873-.037-1.628-.311-2.549-.323.049 0 .146-.184.136-.205-.134-.371-2.289.364-1.781.138-.245 0 .534-.206.703-.24-.454-.025-.862-.025-1.321.065.156-.051.315-.085.459-.165-.958.04-1.313.035-2.014.529.23.01.441-.042.646-.171a1.214 1.214 0 0 1-.136.007c.248-.116.675-.082.911-.156-.144.08-1.008.179-.881.447 0 0 .606.005.673.037-.188.159-.43.182-.702.065-.246.198 1.723.216 1.736.216-.251.067-1.202.934-1.535.628-.049-.217.072-.311.345-.3.229-.189-.944.083-.886.082.292-.233-.241-.134.201-.261-.105-.05-.403.021-.43-.055.139-.042.278-.089.42-.131.317-.236-1.018-.207-1.391.072-.097.064.484.121.382.204-.097.049-.189.104-.286.156.097-.024.174-.032.286-.064-.146.21-.697.142-1.043.41-.208.035-.174-.007-.089-.054-.481.131-1.83-.025-2.667-.057-.315.253-.869.302-1.053.235-1.075-.364-1.925.383-2.638 1.016a41.197 41.197 0 0 0-2.972 2.968c7.276-8.119 17.802-13.25 29.574-13.25 22.046 0 39.914 17.87 39.914 39.912a39.68 39.68 0 0 1-4.531 18.434c.054-.053.104-.125.162-.162-.182.356-.371.715-.565 1.075z"></path><path d="M49.454 17.087c-.051-.003-.099-.035-.088-.065.215-.02.449-.067.546-.134a.673.673 0 0 1-.41-.08c.057-.163.33.03.41-.173.074-.219-.435-.181-.41-.243.12-.26.934.104 1.048-.165a1.368 1.368 0 0 0-.419-.126c.062-.007.147-.017.211-.033a1.95 1.95 0 0 0-.732-.046c.28-.151 1.844-.5 1.96-.703.436-.018 1.253-.078 1.372-.258.042-.065-3.83.401-4.06.441.054-.042.854-.298.869-.323.015-.027-.151-.009-.372.012.271-.047.503-.124.648-.25-2.042-.04-4.257-.162-6.258.3.023.021.082.021.117.04a.696.696 0 0 0-.306.047.446.446 0 0 0 .323.094c-.159.01-.961-.146-1.058 0-.023.032.007.047.007.077-.154-.067-.369-.102-.452.037-.295.015-2.307.104-2.521.516a.594.594 0 0 0 .38.035c-.218.412-1.14.05-1.308.424-.065.117.817.049.898.049-.171.199-.665-.02-.816.199a.663.663 0 0 1 .362.046c-.032.025-.072.03-.129.055a.487.487 0 0 0 .38.049.064.064 0 0 1-.042-.02c.39-.109 1.842-.109 1.577.589.178.047.169.102-.015.201.154-.012.598.242.652.249-.122.194-.382-.035-.556.005-.02.117.442.136.628.179-.201.238-.732.312-.829.63a.15.15 0 0 1 .121 0c-.251.354.184.403.303.541-.554.298.963.994 1.175 1.009.329.029 1.063-1.227 1.687-1.338-.013.021-.022.057-.033.096.671.01 1.01-.362 1.591-.534a8.264 8.264 0 0 0 2.705-.433c-.213-.041-1.115-.021-1.072-.171.288-.028.132-.028.178-.188.129.042 1.107.401 1.178.188.083-.312-.718-.451-.865-.53.097-.302.683.486.849 0a2.046 2.046 0 0 0-.501-.209c.3 0 .807.231 1.077-.086zM88.213 46.15c-.714.244-1.426.634-2.186.8-1.351.24-1.866.63-2.237-.998-.266-1.132-2.203-1.91-2.465-3.114-.193-.918-.426-1.234-1.024-1.902-.551-.621-.353-1.699-.793-2.464-.395-.67-.48-1.376-.84-2.063-.533-1.021-1.63-2.401-1.688-3.554.354.389.744 1.436 1.164 1.505.262-1.123.301-1.41-.137-2.486-.729.194-1.374-.266-2.079-.007-.945.347-1.682.229-2.631-.109-.678-.241-3.382-1.822-3.346.009.038 2.131-2.493-.632-3.146-.848-.705-.224-1.877.173-1.861-1.043 0-.691.259-1.223.3-1.832-.198.196-.386.183-.552-.042-.305-.475-.742.15-1.087.161-.713.02-1.351.005-2.05.03-1.047.042-2.166.596-3.063 1.105-1.115.65-2.105-.301-2.735.551.012 0 .021 0 .039-.003-.562.745-1.213 1.406-1.753 2.161-.38.522-.243 1.197-.438 1.78-.169.549-.792 1.076-1.317 1.27-.944.352-1.324 1.431-1.719 2.295-.318.694-.574 1.348-.946 2.013-.5.867.171 2.258.131 3.206-.017.668-.268 1.448-.63 2.009-.35.554.109 1.22.09 1.949h-.058c.371.581.808 1.103 1.27 1.615.818.903.998 2.115 1.862 2.995.662.666 1.439 1.704 2.491 1.341.477-.169.862-.462 1.396-.481.443-.011.784.382 1.22.37 1.02-.023 2.037-1.453 3.271-1.483.899-.019.819 1.525 1.601 1.504 2.527-.049 2.23 1.751 1.584 3.513-.412 1.124.694 2.189 1.323 2.979.623.796.696 1.987.954 2.953.241.907.68 2.317.463 3.257-.222.928-1 1.588-1.176 2.544-.248 1.349.272 2.67.865 3.853.566 1.119.601 1.591.737 2.83.282 2.677 2.334 4.604 2.301 7.172.268-.154 1.097.365 1.819-.02.756-.402 1.41-.214 2.19-.293.058-.328 1.507-.837 1.799-1.229.693-.946 1.098-2.044 1.865-2.928.815-.979-.113-1.688.854-2.498.911-.753 1.201-.454 1.254-1.917.024-.636-1.18-2.185.121-2.447.153-.916 1.065-1.323 1.775-1.765 2.015-1.237.457-3.005 1.28-4.748.295-.644-.672-1.38-.665-2.076.017-.676-.141-1.329-.141-1.997 0-.658.552-.997.688-1.608.506-2.325 2.49-2.955 3.712-4.742 1.054-1.543 3.131-5.2 2.344-7.073z"></path></g><defs data-v-fde0c5aa=""><!----></defs><g data-v-fde0c5aa="" id="a0ec6c48-36f2-4e29-914c-848b198d2200" fill="#95A5A8" transform="matrix(0.6577097014797102,0,0,0.6577097014797102,173.07708665844598,174.42354925802502)"><path d="M6.59 9.21L6.59 8.71L6.59 8.71Q6.59 8.23 6.41 7.87L6.41 7.87L6.41 7.87Q6.22 7.50 5.89 7.27L5.89 7.27L5.89 7.27Q5.57 7.03 5.15 6.90L5.15 6.90L5.15 6.90Q4.73 6.78 4.27 6.78L4.27 6.78L4.27 6.78Q3.86 6.78 3.50 6.88L3.50 6.88L3.50 6.88Q3.14 6.99 2.85 7.18L2.85 7.18L2.85 7.18Q2.56 7.38 2.39 7.66L2.39 7.66L2.39 7.66Q2.23 7.95 2.23 8.33L2.23 8.33L2.23 8.41L2.23 8.41Q2.23 8.82 2.39 9.11L2.39 9.11L2.39 9.11Q2.56 9.39 2.89 9.60L2.89 9.60L2.89 9.60Q3.22 9.80 3.71 9.93L3.71 9.93L3.71 9.93Q4.20 10.07 4.86 10.16L4.86 10.16L4.86 10.16Q6.40 10.40 7.13 11.07L7.13 11.07L7.13 11.07Q7.85 11.73 7.85 12.85L7.85 12.85L7.85 13.02L7.85 13.02Q7.85 13.65 7.64 14.17L7.64 14.17L7.64 14.17Q7.42 14.70 6.99 15.08L6.99 15.08L6.99 15.08Q6.57 15.46 5.94 15.67L5.94 15.67L5.94 15.67Q5.31 15.88 4.48 15.88L4.48 15.88L4.48 15.88Q3.54 15.88 2.82 15.60L2.82 15.60L2.82 15.60Q2.10 15.33 1.62 14.85L1.62 14.85L1.62 14.85Q1.13 14.36 0.88 13.71L0.88 13.71L0.88 13.71Q0.63 13.06 0.63 12.29L0.63 12.29L0.63 11.87L1.81 11.87L1.81 12.21L1.81 12.21Q1.81 13.50 2.51 14.14L2.51 14.14L2.51 14.14Q3.22 14.78 4.48 14.78L4.48 14.78L4.48 14.78Q5.57 14.78 6.13 14.30L6.13 14.30L6.13 14.30Q6.68 13.82 6.68 13.02L6.68 13.02L6.68 12.94L6.68 12.94Q6.68 12.17 6.11 11.76L6.11 11.76L6.11 11.76Q5.54 11.35 4.27 11.17L4.27 11.17L4.27 11.17Q3.53 11.07 2.93 10.87L2.93 10.87L2.93 10.87Q2.34 10.67 1.92 10.34L1.92 10.34L1.92 10.34Q1.50 10.01 1.27 9.55L1.27 9.55L1.27 9.55Q1.05 9.09 1.05 8.46L1.05 8.46L1.05 8.29L1.05 8.29Q1.05 7.71 1.29 7.24L1.29 7.24L1.29 7.24Q1.53 6.76 1.95 6.41L1.95 6.41L1.95 6.41Q2.38 6.06 2.98 5.87L2.98 5.87L2.98 5.87Q3.57 5.68 4.28 5.68L4.28 5.68L4.28 5.68Q5.11 5.68 5.76 5.92L5.76 5.92L5.76 5.92Q6.41 6.16 6.86 6.56L6.86 6.56L6.86 6.56Q7.31 6.96 7.54 7.50L7.54 7.50L7.54 7.50Q7.77 8.04 7.77 8.62L7.77 8.62L7.77 9.21L6.59 9.21ZM18.94 6.66L18.94 6.66L18.94 6.66Q18.94 6.26 19.23 5.97L19.23 5.97L19.23 5.97Q19.52 5.68 19.92 5.68L19.92 5.68L19.92 5.68Q20.33 5.68 20.61 5.97L20.61 5.97L20.61 5.97Q20.90 6.26 20.90 6.66L20.90 6.66L20.90 6.66Q20.90 7.07 20.61 7.36L20.61 7.36L20.61 7.36Q20.33 7.64 19.92 7.64L19.92 7.64L19.92 7.64Q19.52 7.64 19.23 7.36L19.23 7.36L19.23 7.36Q18.94 7.07 18.94 6.66ZM16.95 15.68L16.95 14.67L19.39 14.67L19.39 9.74L17.21 9.74L17.21 8.74L20.48 8.74L20.48 14.67L22.75 14.67L22.75 15.68L16.95 15.68ZM39.03 10.33L39.03 15.68L37.94 15.68L37.94 10.70L37.94 10.70Q37.94 10.21 37.72 9.89L37.72 9.89L37.72 9.89Q37.49 9.58 37.00 9.58L37.00 9.58L37.00 9.58Q36.54 9.58 36.25 9.92L36.25 9.92L36.25 9.92Q35.97 10.26 35.97 10.98L35.97 10.98L35.97 15.68L34.87 15.68L34.87 10.64L34.87 10.64Q34.87 10.18 34.62 9.88L34.62 9.88L34.62 9.88Q34.37 9.58 33.95 9.58L33.95 9.58L33.95 9.58Q33.45 9.58 33.17 9.94L33.17 9.94L33.17 9.94Q32.90 10.30 32.90 10.89L32.90 10.89L32.90 15.68L31.81 15.68L31.81 8.74L32.90 8.74L32.90 9.49L33.07 9.49L33.07 9.49Q33.25 9.00 33.60 8.77L33.60 8.77L33.60 8.77Q33.95 8.54 34.43 8.54L34.43 8.54L34.43 8.54Q34.93 8.54 35.26 8.81L35.26 8.81L35.26 8.81Q35.59 9.07 35.71 9.49L35.71 9.49L35.88 9.49L35.88 9.49Q36.36 8.54 37.39 8.54L37.39 8.54L37.39 8.54Q38.18 8.54 38.60 9.04L38.60 9.04L38.60 9.04Q39.03 9.53 39.03 10.33L39.03 10.33ZM52.88 12.35L52.88 8.74L53.97 8.74L53.97 15.68L52.88 15.68L52.88 14.42L52.71 14.42L52.71 14.42Q52.37 15.09 51.83 15.48L51.83 15.48L51.83 15.48Q51.28 15.88 50.44 15.88L50.44 15.88L50.44 15.88Q49.87 15.88 49.38 15.69L49.38 15.69L49.38 15.69Q48.90 15.50 48.56 15.12L48.56 15.12L48.56 15.12Q48.22 14.74 48.03 14.18L48.03 14.18L48.03 14.18Q47.84 13.62 47.84 12.88L47.84 12.88L47.84 8.74L48.93 8.74L48.93 12.74L48.93 12.74Q48.93 13.83 49.38 14.34L49.38 14.34L49.38 14.34Q49.83 14.84 50.75 14.84L50.75 14.84L50.75 14.84Q51.74 14.84 52.31 14.16L52.31 14.16L52.31 14.16Q52.88 13.48 52.88 12.35L52.88 12.35ZM63.49 15.68L63.49 14.67L66.01 14.67L66.01 6.89L63.57 6.89L63.57 5.88L67.10 5.88L67.10 14.67L69.62 14.67L69.62 15.68L63.49 15.68ZM84.10 14.59L84.10 14.50L83.93 14.50L83.93 14.50Q83.59 15.20 83.00 15.54L83.00 15.54L83.00 15.54Q82.40 15.88 81.75 15.88L81.75 15.88L81.75 15.88Q81.06 15.88 80.47 15.64L80.47 15.64L80.47 15.64Q79.88 15.41 79.44 14.96L79.44 14.96L79.44 14.96Q79.00 14.50 78.75 13.85L78.75 13.85L78.75 13.85Q78.50 13.19 78.50 12.32L78.50 12.32L78.50 12.10L78.50 12.10Q78.50 11.24 78.75 10.58L78.75 10.58L78.75 10.58Q79.00 9.93 79.44 9.47L79.44 9.47L79.44 9.47Q79.88 9.02 80.47 8.78L80.47 8.78L80.47 8.78Q81.06 8.54 81.72 8.54L81.72 8.54L81.72 8.54Q82.43 8.54 83.01 8.86L83.01 8.86L83.01 8.86Q83.59 9.17 83.93 9.83L83.93 9.83L84.10 9.83L84.10 8.74L85.19 8.74L85.19 14.25L85.19 14.25Q85.19 14.67 85.57 14.67L85.57 14.67L85.92 14.67L85.92 15.68L85.18 15.68L85.18 15.68Q84.70 15.68 84.40 15.37L84.40 15.37L84.40 15.37Q84.10 15.06 84.10 14.59L84.10 14.59ZM81.86 14.84L81.86 14.84L81.86 14.84Q82.35 14.84 82.76 14.66L82.76 14.66L82.76 14.66Q83.17 14.48 83.47 14.14L83.47 14.14L83.47 14.14Q83.76 13.80 83.93 13.33L83.93 13.33L83.93 13.33Q84.10 12.87 84.10 12.29L84.10 12.29L84.10 12.12L84.10 12.12Q84.10 11.56 83.93 11.09L83.93 11.09L83.93 11.09Q83.76 10.63 83.46 10.29L83.46 10.29L83.46 10.29Q83.16 9.95 82.75 9.77L82.75 9.77L82.75 9.77Q82.33 9.58 81.86 9.58L81.86 9.58L81.86 9.58Q81.37 9.58 80.96 9.76L80.96 9.76L80.96 9.76Q80.56 9.94 80.26 10.27L80.26 10.27L80.26 10.27Q79.95 10.60 79.79 11.07L79.79 11.07L79.79 11.07Q79.62 11.54 79.62 12.10L79.62 12.10L79.62 12.32L79.62 12.32Q79.62 13.51 80.24 14.17L80.24 14.17L80.24 14.17Q80.86 14.84 81.86 14.84ZM94.39 9.74L94.39 8.74L96.57 8.74L96.57 5.88L97.66 5.88L97.66 8.74L100.35 8.74L100.35 9.74L97.66 9.74L97.66 14.25L97.66 14.25Q97.66 14.67 98.04 14.67L98.04 14.67L100.02 14.67L100.02 15.68L97.65 15.68L97.65 15.68Q97.17 15.68 96.87 15.37L96.87 15.37L96.87 15.37Q96.57 15.06 96.57 14.59L96.57 14.59L96.57 9.74L94.39 9.74ZM112.35 6.66L112.35 6.66L112.35 6.66Q112.35 6.26 112.64 5.97L112.64 5.97L112.64 5.97Q112.92 5.68 113.33 5.68L113.33 5.68L113.33 5.68Q113.74 5.68 114.02 5.97L114.02 5.97L114.02 5.97Q114.31 6.26 114.31 6.66L114.31 6.66L114.31 6.66Q114.31 7.07 114.02 7.36L114.02 7.36L114.02 7.36Q113.74 7.64 113.33 7.64L113.33 7.64L113.33 7.64Q112.92 7.64 112.64 7.36L112.64 7.36L112.64 7.36Q112.35 7.07 112.35 6.66ZM110.36 15.68L110.36 14.67L112.80 14.67L112.80 9.74L110.61 9.74L110.61 8.74L113.89 8.74L113.89 14.67L116.16 14.67L116.16 15.68L110.36 15.68ZM132.16 12.54L126.56 12.54L126.56 12.54Q126.60 13.58 127.20 14.21L127.20 14.21L127.20 14.21Q127.81 14.84 128.88 14.84L128.88 14.84L128.88 14.84Q129.37 14.84 129.74 14.73L129.74 14.73L129.74 14.73Q130.10 14.62 130.36 14.42L130.36 14.42L130.36 14.42Q130.62 14.22 130.78 13.96L130.78 13.96L130.78 13.96Q130.94 13.71 131.04 13.41L131.04 13.41L132.08 13.69L132.08 13.69Q131.78 14.66 130.99 15.27L130.99 15.27L130.99 15.27Q130.20 15.88 128.86 15.88L128.86 15.88L128.86 15.88Q128.11 15.88 127.49 15.62L127.49 15.62L127.49 15.62Q126.87 15.36 126.42 14.88L126.42 14.88L126.42 14.88Q125.97 14.41 125.72 13.75L125.72 13.75L125.72 13.75Q125.47 13.09 125.47 12.29L125.47 12.29L125.47 11.96L125.47 11.96Q125.47 11.23 125.73 10.60L125.73 10.60L125.73 10.60Q125.99 9.97 126.45 9.51L126.45 9.51L126.45 9.51Q126.91 9.06 127.53 8.80L127.53 8.80L127.53 8.80Q128.16 8.54 128.88 8.54L128.88 8.54L128.88 8.54Q129.74 8.54 130.36 8.86L130.36 8.86L130.36 8.86Q130.98 9.17 131.38 9.63L131.38 9.63L131.38 9.63Q131.78 10.09 131.97 10.64L131.97 10.64L131.97 10.64Q132.16 11.19 132.16 11.65L132.16 11.65L132.16 12.54ZM128.88 9.58L128.88 9.58L128.88 9.58Q128.42 9.58 128.02 9.72L128.02 9.72L128.02 9.72Q127.62 9.87 127.32 10.14L127.32 10.14L127.32 10.14Q127.02 10.40 126.83 10.76L126.83 10.76L126.83 10.76Q126.64 11.12 126.59 11.54L126.59 11.54L131.07 11.54L131.07 11.54Q131.04 11.09 130.85 10.72L130.85 10.72L130.85 10.72Q130.66 10.36 130.36 10.11L130.36 10.11L130.36 10.11Q130.06 9.86 129.68 9.72L129.68 9.72L129.68 9.72Q129.29 9.58 128.88 9.58Z"></path></g></svg>