<svg width="500" height="668" xmlns="http://www.w3.org/2000/svg" xmlns:xlink="http://www.w3.org/1999/xlink" xml:space="preserve" overflow="hidden"><g><path d="M0 0 500 0 500 668 0 668Z" fill="#05080F"/><path d="M0.5 0.5 499.5 0.5 499.5 667.5 0.5 667.5Z" stroke="#FFFFFF" fill="none"/><path d="M255 550.562 360.705 444.857 361.413 445.564 255.707 551.269Z" fill="#FFFFFF"/><path d="M254.5 386.5 255.5 386.5 255.5 551.5 254.5 551.5Z" fill="#FFFFFF"/><path d="M360.413 280.5 361.413 280.5 361.413 445.5 360.413 445.5Z" fill="#FFFFFF"/><path d="M148.934 280.5 149.934 280.5 149.934 445.5 148.934 445.5Z" fill="#FFFFFF"/><path d="M150.141 407.203 255.5 512.562 254.793 513.269 149.434 407.91Z" fill="#FFFFFF"/><path d="M254.5 512.562 360.205 406.857 360.913 407.564 255.207 513.269Z" fill="#FFFFFF"/><path d="M254.5 385.793 360.205 280.088 360.913 280.795 255.207 386.5Z" fill="#FFFFFF"/><path d="M254.5 259.797 255.5 259.797 255.5 386.5 254.5 386.5Z" fill="#FFFFFF"/><path d="M360.413 153.797 361.413 153.797 361.413 280.5 360.413 280.5Z" fill="#FFFFFF"/><path d="M254.5 259.502 360.205 153.797 360.913 154.504 255.207 260.209Z" fill="#FFFFFF"/><path d="M149.641 280.434 255 385.793 254.293 386.5 148.934 281.141Z" fill="#FFFFFF"/><path d="M148.934 153.797 149.934 153.797 149.934 280.5 148.934 280.5Z" fill="#FFFFFF"/><path d="M149.641 154.143 255 259.502 254.293 260.209 148.934 154.85Z" fill="#FFFFFF"/><path d="M255 550.562 360.705 444.857 361.413 445.564 255.707 551.269Z" fill="#FFFFFF"/><path d="M148.087 153.436 253.792 47.7306 254.5 48.4377 148.794 154.143Z" fill="#FFFFFF"/><path d="M255.054 48.077 360.413 153.436 359.706 154.143 254.347 48.7841Z" fill="#FFFFFF"/><path d="M254 50 255 50 255 260 254 260Z" fill="#FFFFFF"/><path d="M266.913 529.064 372.618 634.769 371.911 635.477 266.206 529.771Z" fill="#FFFFFF"/><path d="M263.913 532.064 369.618 637.769 368.911 638.477 263.206 532.771Z" fill="#FFFFFF"/><path d="M260.913 535.064 366.618 640.769 365.911 641.477 260.206 535.771Z" fill="#FFFFFF"/><path d="M269.913 526.063 375.618 631.768 374.911 632.475 269.206 526.77Z" fill="#FFFFFF"/><path d="M275.913 520.063 381.618 625.768 380.911 626.475 275.206 520.77Z" fill="#FFFFFF"/><path d="M272.913 523.063 378.618 628.768 377.911 629.475 272.206 523.77Z" fill="#FFFFFF"/><path d="M269.913 526.063 375.618 631.768 374.911 632.475 269.206 526.77Z" fill="#FFFFFF"/><path d="M278.913 517.063 384.618 622.768 383.911 623.475 278.206 517.77Z" fill="#FFFFFF"/><path d="M284.913 511.063 390.618 616.768 389.911 617.475 284.206 511.77Z" fill="#FFFFFF"/><path d="M281.913 514.063 387.618 619.768 386.911 620.475 281.206 514.77Z" fill="#FFFFFF"/><path d="M278.913 517.063 384.618 622.768 383.911 623.475 278.206 517.77Z" fill="#FFFFFF"/><path d="M287.913 508.063 393.618 613.768 392.911 614.475 287.206 508.77Z" fill="#FFFFFF"/><path d="M293.913 502.063 399.618 607.768 398.911 608.475 293.206 502.77Z" fill="#FFFFFF"/><path d="M290.913 505.063 396.618 610.768 395.911 611.475 290.206 505.77Z" fill="#FFFFFF"/><path d="M287.913 508.063 393.618 613.768 392.911 614.475 287.206 508.77Z" fill="#FFFFFF"/><path d="M296.913 499.062 402.618 604.767 401.911 605.474 296.206 499.769Z" fill="#FFFFFF"/><path d="M302.913 493.062 408.618 598.767 407.911 599.474 302.206 493.769Z" fill="#FFFFFF"/><path d="M299.913 496.062 405.618 601.767 404.911 602.474 299.206 496.769Z" fill="#FFFFFF"/><path d="M296.913 499.062 402.618 604.767 401.911 605.474 296.206 499.769Z" fill="#FFFFFF"/><path d="M305.913 490.062 411.618 595.767 410.911 596.474 305.206 490.769Z" fill="#FFFFFF"/><path d="M311.913 484.062 417.618 589.767 416.911 590.474 311.206 484.769Z" fill="#FFFFFF"/><path d="M308.913 487.062 414.618 592.767 413.911 593.474 308.206 487.769Z" fill="#FFFFFF"/><path d="M305.913 490.062 411.618 595.767 410.911 596.474 305.206 490.769Z" fill="#FFFFFF"/><path d="M314.913 481.062 420.618 586.767 419.911 587.474 314.206 481.769Z" fill="#FFFFFF"/><path d="M320.913 475.062 426.618 580.767 425.911 581.474 320.206 475.769Z" fill="#FFFFFF"/><path d="M317.913 478.062 423.618 583.767 422.911 584.474 317.206 478.769Z" fill="#FFFFFF"/><path d="M314.913 481.062 420.618 586.767 419.911 587.474 314.206 481.769Z" fill="#FFFFFF"/><path d="M323.913 472.061 429.618 577.766 428.911 578.474 323.206 472.768Z" fill="#FFFFFF"/><path d="M329.913 466.061 435.618 571.766 434.911 572.474 329.206 466.768Z" fill="#FFFFFF"/><path d="M326.913 469.061 432.618 574.766 431.911 575.474 326.206 469.768Z" fill="#FFFFFF"/><path d="M323.913 472.061 429.618 577.766 428.911 578.474 323.206 472.768Z" fill="#FFFFFF"/><path d="M332.913 463.061 438.618 568.766 437.911 569.474 332.206 463.768Z" fill="#FFFFFF"/><path d="M338.913 457.061 444.618 562.766 443.911 563.474 338.206 457.768Z" fill="#FFFFFF"/><path d="M335.913 460.061 441.618 565.766 440.911 566.474 335.206 460.768Z" fill="#FFFFFF"/><path d="M332.913 463.061 438.618 568.766 437.911 569.474 332.206 463.768Z" fill="#FFFFFF"/><path d="M341.913 454.061 447.618 559.766 446.911 560.474 341.206 454.768Z" fill="#FFFFFF"/><path d="M338.913 457.061 444.618 562.766 443.911 563.474 338.206 457.768Z" fill="#FFFFFF"/><path d="M335.913 460.061 441.618 565.766 440.911 566.474 335.206 460.768Z" fill="#FFFFFF"/><path d="M332.913 463.061 438.618 568.766 437.911 569.474 332.206 463.768Z" fill="#FFFFFF"/><path d="M341.913 454.061 447.618 559.766 446.911 560.474 341.206 454.768Z" fill="#FFFFFF"/><path d="M347.913 448.061 453.618 553.766 452.911 554.474 347.206 448.768Z" fill="#FFFFFF"/><path d="M344.913 451.061 450.618 556.766 449.911 557.474 344.206 451.768Z" fill="#FFFFFF"/><path d="M341.913 454.061 447.618 559.766 446.911 560.474 341.206 454.768Z" fill="#FFFFFF"/><path d="M350.913 445.06 456.618 550.765 455.911 551.473 350.206 445.767Z" fill="#FFFFFF"/><path d="M347.913 448.061 453.618 553.766 452.911 554.474 347.206 448.768Z" fill="#FFFFFF"/><path d="M344.913 451.061 450.618 556.766 449.911 557.474 344.206 451.768Z" fill="#FFFFFF"/><path d="M341.913 454.061 447.618 559.766 446.911 560.474 341.206 454.768Z" fill="#FFFFFF"/><path d="M350.913 445.06 456.618 550.765 455.911 551.473 350.206 445.767Z" fill="#FFFFFF"/><path d="M350.913 445.061 456.618 550.766 455.911 551.474 350.206 445.768Z" fill="#FFFFFF"/><path d="M347.913 448.061 453.618 553.766 452.911 554.474 347.206 448.768Z" fill="#FFFFFF"/><path d="M344.913 451.061 450.618 556.766 449.911 557.474 344.206 451.768Z" fill="#FFFFFF"/><path d="M353.913 442.06 459.618 547.765 458.911 548.473 353.206 442.767Z" fill="#FFFFFF"/><path d="M260.913 535.064 366.618 640.769 365.911 641.477 260.206 535.771Z" fill="#FFFFFF"/><path d="M260.913 535.064 366.618 640.769 365.911 641.477 260.206 535.771Z" fill="#FFFFFF"/><path d="M260.913 535.064 366.618 640.769 365.911 641.477 260.206 535.771Z" fill="#FFFFFF"/><path d="M149.641 445.434 255 550.793 254.293 551.5 148.934 446.141Z" fill="#FFFFFF"/><path d="M146.206 643.973 251.911 538.268 252.618 538.975 146.913 644.68Z" fill="#FFFFFF"/><path d="M143.206 640.769 248.911 535.064 249.618 535.771 143.913 641.476Z" fill="#FFFFFF"/><path d="M140.206 637.769 245.911 532.064 246.618 532.771 140.913 638.476Z" fill="#FFFFFF"/><path d="M137.206 634.769 242.911 529.064 243.618 529.771 137.913 635.476Z" fill="#FFFFFF"/><path d="M134.206 631.769 239.911 526.064 240.618 526.771 134.913 632.476Z" fill="#FFFFFF"/><path d="M134.206 631.769 239.911 526.064 240.618 526.771 134.913 632.476Z" fill="#FFFFFF"/><path d="M131.206 628.565 236.911 522.86 237.618 523.567 131.913 629.272Z" fill="#FFFFFF"/><path d="M128.206 625.565 233.911 519.86 234.618 520.567 128.913 626.272Z" fill="#FFFFFF"/><path d="M125.206 622.565 230.911 516.86 231.618 517.567 125.913 623.272Z" fill="#FFFFFF"/><path d="M122.206 619.564 227.911 513.859 228.618 514.566 122.913 620.271Z" fill="#FFFFFF"/><path d="M122.206 619.972 227.911 514.267 228.618 514.974 122.913 620.679Z" fill="#FFFFFF"/><path d="M119.206 616.768 224.911 511.063 225.618 511.77 119.913 617.475Z" fill="#FFFFFF"/><path d="M116.206 613.768 221.911 508.063 222.618 508.77 116.913 614.475Z" fill="#FFFFFF"/><path d="M113.206 610.768 218.911 505.063 219.618 505.77 113.913 611.475Z" fill="#FFFFFF"/><path d="M110.206 607.768 215.911 502.063 216.618 502.77 110.913 608.475Z" fill="#FFFFFF"/><path d="M122.206 619.972 227.911 514.267 228.618 514.974 122.913 620.679Z" fill="#FFFFFF"/><path d="M119.206 616.768 224.911 511.063 225.618 511.77 119.913 617.475Z" fill="#FFFFFF"/><path d="M116.206 613.768 221.911 508.063 222.618 508.77 116.913 614.475Z" fill="#FFFFFF"/><path d="M113.206 610.768 218.911 505.063 219.618 505.77 113.913 611.475Z" fill="#FFFFFF"/><path d="M110.206 607.768 215.911 502.063 216.618 502.77 110.913 608.475Z" fill="#FFFFFF"/><path d="M122.206 619.972 227.911 514.267 228.618 514.974 122.913 620.679Z" fill="#FFFFFF"/><path d="M119.206 616.768 224.911 511.063 225.618 511.77 119.913 617.475Z" fill="#FFFFFF"/><path d="M116.206 613.768 221.911 508.063 222.618 508.77 116.913 614.475Z" fill="#FFFFFF"/><path d="M113.206 610.768 218.911 505.063 219.618 505.77 113.913 611.475Z" fill="#FFFFFF"/><path d="M110.206 607.768 215.911 502.063 216.618 502.77 110.913 608.475Z" fill="#FFFFFF"/><path d="M110.206 607.768 215.911 502.063 216.618 502.77 110.913 608.475Z" fill="#FFFFFF"/><path d="M110.206 607.768 215.911 502.063 216.618 502.77 110.913 608.475Z" fill="#FFFFFF"/><path d="M107.206 604.564 212.911 498.859 213.618 499.566 107.913 605.271Z" fill="#FFFFFF"/><path d="M104.206 601.564 209.911 495.859 210.618 496.566 104.913 602.271Z" fill="#FFFFFF"/><path d="M101.206 598.564 206.911 492.859 207.618 493.566 101.913 599.271Z" fill="#FFFFFF"/><path d="M98.206 595.563 203.911 489.858 204.618 490.565 98.9131 596.27Z" fill="#FFFFFF"/><path d="M98.206 595.563 203.911 489.858 204.618 490.565 98.9131 596.27Z" fill="#FFFFFF"/><path d="M98.206 595.563 203.911 489.858 204.618 490.565 98.9131 596.27Z" fill="#FFFFFF"/><path d="M95.206 592.359 200.911 486.654 201.618 487.361 95.9131 593.066Z" fill="#FFFFFF"/><path d="M92.206 589.359 197.911 483.654 198.618 484.361 92.9131 590.066Z" fill="#FFFFFF"/><path d="M89.206 586.359 194.911 480.654 195.618 481.361 89.9131 587.066Z" fill="#FFFFFF"/><path d="M86.206 583.359 191.911 477.654 192.618 478.361 86.9131 584.066Z" fill="#FFFFFF"/><path d="M86.206 583.359 191.911 477.654 192.618 478.361 86.9131 584.066Z" fill="#FFFFFF"/><path d="M86.206 583.359 191.911 477.654 192.618 478.361 86.9131 584.066Z" fill="#FFFFFF"/><path d="M83.206 580.155 188.911 474.45 189.618 475.157 83.9131 580.862Z" fill="#FFFFFF"/><path d="M80.206 577.155 185.911 471.45 186.618 472.157 80.9131 577.862Z" fill="#FFFFFF"/><path d="M77.206 574.155 182.911 468.45 183.618 469.157 77.9131 574.862Z" fill="#FFFFFF"/><path d="M74.206 571.155 179.911 465.45 180.618 466.157 74.9131 571.862Z" fill="#FFFFFF"/><path d="M74.206 571.155 179.911 465.45 180.618 466.157 74.9131 571.862Z" fill="#FFFFFF"/><path d="M74.206 571.155 179.911 465.45 180.618 466.157 74.9131 571.862Z" fill="#FFFFFF"/><path d="M71.206 567.951 176.911 462.246 177.618 462.953 71.9131 568.658Z" fill="#FFFFFF"/><path d="M68.206 564.951 173.911 459.246 174.618 459.953 68.9131 565.658Z" fill="#FFFFFF"/><path d="M65.206 561.951 170.911 456.246 171.618 456.953 65.9131 562.658Z" fill="#FFFFFF"/><path d="M62.206 558.95 167.911 453.245 168.618 453.952 62.9131 559.657Z" fill="#FFFFFF"/><path d="M62.206 558.95 167.911 453.245 168.618 453.952 62.9131 559.657Z" fill="#FFFFFF"/><path d="M62.206 558.95 167.911 453.245 168.618 453.952 62.9131 559.657Z" fill="#FFFFFF"/><path d="M59.206 555.746 164.911 450.041 165.618 450.748 59.9131 556.453Z" fill="#FFFFFF"/><path d="M56.206 552.746 161.911 447.041 162.618 447.748 56.9131 553.453Z" fill="#FFFFFF"/><path d="M53.206 549.746 158.911 444.041 159.618 444.748 53.9131 550.453Z" fill="#FFFFFF"/><path d="M50.206 546.746 155.911 441.041 156.618 441.748 50.9131 547.453Z" fill="#FFFFFF"/><path d="M50.206 546.746 155.911 441.041 156.618 441.748 50.9131 547.453Z" fill="#FFFFFF"/></g></svg>